<svg width="1278" height="748" viewBox="0 0 1278 748" fill="none" xmlns="http://www.w3.org/2000/svg">
<g id="help-desk-home">
<g id="circle-bg 1">
<g id="Layer 2">
<g id="Background">
<path id="Vector" d="M639 748C991.91 748 1278 693.155 1278 625.5C1278 557.845 991.91 503 639 503C286.09 503 0 557.845 0 625.5C0 693.155 286.09 748 639 748Z" fill="#C7DB9D"/>
</g>
</g>
</g>
<g id="helpdesk_m 1" clip-path="url(#clip0)">
<g id="Layer 2_2">
<g id="man-desk">
<g id="CHAIR">
<path id="Vector_2" d="M1057.12 642.652H967.279C958.831 642.652 950.73 639.295 944.757 633.319C938.784 627.342 935.428 619.237 935.428 610.785V466.815C935.428 464.597 935.865 462.4 936.713 460.351C937.562 458.301 938.805 456.439 940.373 454.87C941.941 453.302 943.802 452.057 945.851 451.208C947.899 450.36 950.095 449.923 952.312 449.923H1080.86C1083.08 449.923 1085.28 449.486 1087.33 448.637C1089.37 447.788 1091.23 446.543 1092.8 444.975C1094.37 443.406 1095.61 441.544 1096.46 439.494C1097.31 437.445 1097.75 435.248 1097.75 433.03V403.243" stroke="#B7B7B7" stroke-width="6" stroke-miterlimit="10"/>
<path id="Vector_3" d="M1102.47 642.652H1053.05C1044.6 642.652 1036.5 639.295 1030.52 633.319C1024.55 627.342 1021.2 619.237 1021.2 610.785V467.341C1021.2 462.721 1023.03 458.291 1026.29 455.024C1029.56 451.758 1033.99 449.923 1038.6 449.923" stroke="#B7B7B7" stroke-width="6" stroke-miterlimit="10"/>
<path id="Vector_4" d="M1100.72 276.611C1102.55 276.612 1104.37 277.004 1106.05 277.763C1107.72 278.521 1109.22 279.628 1110.43 281.01C1111.64 282.391 1112.55 284.016 1113.09 285.775C1113.62 287.534 1113.78 289.388 1113.55 291.212L1100.9 389.095C1098.71 406.032 1090.43 421.592 1077.61 432.868C1064.79 444.145 1048.31 450.367 1031.24 450.372H890.573C888.668 450.372 886.84 449.614 885.493 448.266C884.145 446.918 883.388 445.09 883.388 443.183V443.094C883.395 441.375 884.014 439.715 885.133 438.411C886.252 437.107 887.798 436.244 889.495 435.977C919.658 431.035 965.59 417.283 970.229 375.626L981.563 287.901C981.966 284.782 983.491 281.917 985.852 279.841C988.213 277.765 991.249 276.62 994.392 276.62L1100.72 276.611Z" fill="#DCDCDC" stroke="#B7B7B7" stroke-width="6" stroke-miterlimit="10"/>
<path id="Vector_5" d="M1113.54 291.212L1100.9 389.095C1098.71 406.032 1090.43 421.592 1077.61 432.868C1064.79 444.145 1048.31 450.367 1031.24 450.372H890.577C888.672 450.372 886.844 449.614 885.497 448.266C884.149 446.918 883.392 445.09 883.392 443.183V443.094C883.391 441.961 883.661 440.844 884.178 439.836C884.761 440.957 885.641 441.897 886.721 442.552C887.801 443.207 889.04 443.553 890.303 443.552H1026.3C1042.7 443.55 1058.54 437.576 1070.85 426.745C1083.17 415.915 1091.13 400.968 1093.23 384.697L1105.38 290.637C1105.61 288.884 1105.46 287.103 1104.94 285.412C1104.43 283.722 1103.56 282.161 1102.39 280.833C1101.22 279.506 1099.79 278.443 1098.18 277.715C1096.57 276.986 1094.82 276.61 1093.05 276.611H1100.72C1102.55 276.611 1104.37 277.003 1106.05 277.761C1107.72 278.52 1109.22 279.627 1110.43 281.008C1111.64 282.39 1112.55 284.015 1113.09 285.774C1113.62 287.534 1113.78 289.388 1113.54 291.212V291.212Z" fill="#E3FEF6" stroke="#B7B7B7" stroke-width="6" stroke-miterlimit="10"/>
<path id="Vector_6" d="M935.428 588.092H1021.2" stroke="#B7B7B7" stroke-width="6" stroke-miterlimit="10"/>
</g>
<g id="MAN">
<g id="LEGS">
<g id="SHOES">
<path id="Vector_7" d="M801.64 602.626C801.64 605.74 808.241 618.49 808.021 623.98C807.801 629.47 784.298 628.958 772.664 629.03C758.833 629.12 729.416 629.12 729.416 629.12C729.416 629.12 726.565 616.433 741.711 614.676C756.857 612.919 775.169 596.903 775.169 596.903L801.64 602.626Z" fill="#793F14"/>
<path id="Vector_8" d="M966.888 606.832C967.602 609.428 975.505 620.844 975.505 631.825C975.505 631.825 961.234 641.709 956.196 642.356C951.158 643.003 909.653 642.356 909.653 642.356C909.653 642.356 908.656 628.752 926.779 626.397C939.51 624.74 939.941 609.325 939.941 609.325L966.888 606.832Z" fill="#793F14"/>
</g>
<g id="LEGS_2">
<path id="Vector_9" d="M1022.71 340.956C1022.71 340.956 1042.92 377.387 1035 403.306C1027.08 429.225 980.328 424.925 980.328 424.925C980.328 424.925 995.258 482.697 973.417 604.374C973.417 604.374 956.187 613.602 926.77 607.452C926.77 607.452 922.379 550.785 901.979 425.59L864.901 425.514C864.901 425.514 870.573 516.784 808.87 601.768C808.87 601.768 789.377 606.836 767.863 592.783C767.863 592.783 795.053 468.954 799.678 392.968C801.025 370.59 837.644 350.876 920.677 340.996C920.677 340.992 995.698 345.516 1022.71 340.956Z" fill="#3F4D90"/>
</g>
</g>
<g id="LEFT HAND">
<path id="Vector_10" d="M893.007 310.405C873.554 339.266 786.75 326.956 764.159 323.205C762.246 325.2 759.668 327.298 757.059 327.832C751.716 328.915 735.55 327.509 733.404 329.18C733.404 329.18 732.47 324.777 737.652 322.441C741.244 320.833 747.391 322.127 745.133 319.817C743.597 318.245 739.816 318.586 731.778 321.089C728.756 322.032 717.71 327.352 714.845 320.123L725.703 309.79C732.923 305.8 736.7 301.276 752.479 304.906C754.566 305.421 756.744 305.444 758.842 304.973C763.934 302.7 807.635 284.397 846.953 278.017L855.561 221.938C869.872 235.021 895.019 246.307 896.747 247.071C896.747 247.143 901.265 298.176 893.007 310.405Z" fill="#C36F0B"/>
<path id="Vector_11" d="M897.556 259.579C888.885 255.724 867.308 245.108 854.524 228.781L855.561 222.015C869.872 235.093 895.019 246.379 896.747 247.143C896.747 247.143 897.201 252.229 897.556 259.579Z" fill="#B65A18"/>
</g>
<g id="SHIRT">
<path id="Vector_12" d="M998.312 121.103C1001.36 124.149 1021.13 139.133 1062.63 163.681C1070.1 168.102 1091.47 188.701 1090.17 232.384C1090.17 232.384 1074.36 247.588 1034.38 256.065C1034.38 256.065 1025.44 320.684 1024.79 337.64C1024.14 354.596 922.909 347.075 918.562 340.578C914.215 334.082 897.062 275.434 896.846 247.188C896.846 247.188 854.259 228.48 846.872 210.873C846.872 210.873 864.686 169.58 876.639 162.19C890.874 153.388 929.303 141.523 952.604 122.393L998.312 121.103Z" fill="#F0E1D4"/>
<path id="Vector_13" d="M1033.1 255.216L1030.13 221.17" stroke="#FAFAFA" stroke-width="6" stroke-miterlimit="10" stroke-linecap="round"/>
<path id="Vector_14" d="M895.993 245.485C895.993 245.485 893.941 225.429 900.034 203.959" stroke="#FAFAFA" stroke-width="6" stroke-miterlimit="10" stroke-linecap="round"/>
<g id="TIE">
<path id="Vector_15" d="M959.128 211.452C965.684 249.605 982.232 304.003 954.571 320.626C954.571 320.626 960.947 305.831 945.76 271.094C924.489 222.442 947.368 164.647 952.698 152.382L944.894 142.138L956.272 130.606L959.55 131.122L969.959 143.563L958.599 154.853C957.507 158.164 953.138 176.589 959.128 211.452Z" fill="#79E6BC"/>
<path id="Vector_16" d="M962.052 135.395L949.384 148.055L948.342 146.708L960.848 134.204C961.01 134.055 961.224 133.974 961.445 133.978C961.665 133.983 961.875 134.073 962.031 134.229C962.187 134.386 962.276 134.596 962.28 134.817C962.284 135.038 962.202 135.251 962.052 135.413V135.395Z" fill="#F7F7F7"/>
<path id="Vector_17" d="M966.304 140.503L951.486 155.329C951.935 154.17 952.384 153.191 952.721 152.395L952.415 151.995L965.123 139.29C965.286 139.149 965.497 139.075 965.712 139.083C965.928 139.09 966.132 139.179 966.285 139.332C966.437 139.485 966.526 139.689 966.534 139.905C966.542 140.12 966.468 140.331 966.327 140.494L966.304 140.503Z" fill="#F7F7F7"/>
<path id="Vector_18" d="M958.464 155.307C958.257 155.99 957.988 157.045 957.7 158.474L946.138 170.029C946.533 168.786 946.928 167.588 947.323 166.435L958.464 155.307Z" fill="#F7F7F7"/>
<path id="Vector_19" d="M956.51 167.024C956.434 167.841 956.367 168.708 956.308 169.612L942.33 183.382C942.599 182.295 942.878 181.225 943.156 180.178L956.51 167.024Z" fill="#F7F7F7"/>
<path id="Vector_20" d="M956.052 180.089L939.568 196.343C939.739 195.359 939.923 194.384 940.111 193.419L956.039 177.694C956.039 178.485 956.039 179.275 956.052 180.089Z" fill="#F7F7F7"/>
<path id="Vector_21" d="M956.555 191.087L937.696 209.633C937.782 208.734 937.88 207.843 937.987 206.96L956.398 188.854C956.443 189.586 956.497 190.328 956.555 191.087Z" fill="#F7F7F7"/>
<path id="Vector_22" d="M957.633 201.519L936.91 221.898C936.91 221.071 936.959 220.254 936.986 219.436L957.368 199.389C957.449 200.095 957.539 200.782 957.633 201.519Z" fill="#F7F7F7"/>
<path id="Vector_23" d="M959.25 212.158L937.116 233.642C937.067 232.887 937.031 232.137 937 231.396L958.908 210.132C958.976 210.581 959.052 211.03 959.128 211.479C959.164 211.686 959.209 211.92 959.25 212.158Z" fill="#F7F7F7"/>
<path id="Vector_24" d="M961.266 222.94L938.365 245.184C938.252 244.492 938.154 243.8 938.059 243.108L960.893 220.946C961.005 221.606 961.131 222.271 961.266 222.94Z" fill="#F7F7F7"/>
<path id="Vector_25" d="M963.435 233.93L940.583 256.11C940.412 255.477 940.255 254.839 940.102 254.205L963.035 231.948C963.183 232.604 963.313 233.269 963.435 233.93Z" fill="#F7F7F7"/>
<path id="Vector_26" d="M965.586 245L943.767 266.178C943.547 265.594 943.318 265.01 943.129 264.426L965.231 243.014C965.334 243.665 965.464 244.335 965.586 245Z" fill="#F7F7F7"/>
<path id="Vector_27" d="M967.647 256.973L947.889 276.161C947.664 275.6 947.44 275.038 947.197 274.463L967.337 254.92C967.436 255.594 967.539 256.29 967.647 256.973Z" fill="#F7F7F7"/>
<path id="Vector_28" d="M969.178 268.569L951.373 285.852C951.185 285.259 950.987 284.657 950.785 284.055L968.944 266.435C969.03 267.144 969.106 267.859 969.178 268.569Z" fill="#F7F7F7"/>
<path id="Vector_29" d="M970.018 280.942L954.189 296.302C954.05 295.669 953.906 295.022 953.74 294.361L969.937 278.637C969.973 279.405 970 280.182 970.018 280.942Z" fill="#F7F7F7"/>
<path id="Vector_30" d="M969.721 291.194C969.645 292.093 969.551 292.964 969.447 293.836L955.756 307.121C955.707 306.42 955.648 305.697 955.567 304.937L969.721 291.194Z" fill="#F7F7F7"/>
</g>
<path id="Vector_31" d="M930.152 136.343C935.814 140.795 942.348 145.36 942.348 145.36L957.844 129.869L973.87 148.069C1000.05 145.787 1012.28 131.073 1012.28 131.073" stroke="#FAFAFA" stroke-width="6" stroke-miterlimit="10" stroke-linecap="round"/>
</g>
<g id="RIGHT HAND">
<g id="mug">
<path id="Vector_32" d="M908.135 287.128H911.346C913.542 287.129 915.647 288.003 917.2 289.556C918.752 291.109 919.625 293.216 919.626 295.413V308.109C919.626 310.306 918.754 312.414 917.201 313.967C915.648 315.521 913.542 316.394 911.346 316.394H908.158" stroke="#5B5B5B" stroke-width="5" stroke-miterlimit="10"/>
<path id="Vector_33" d="M900.259 280.82H884.048C879.475 280.82 875.768 284.529 875.768 289.105V314.952C875.768 319.527 879.475 323.236 884.048 323.236H900.259C904.832 323.236 908.539 319.527 908.539 314.952V289.105C908.539 284.529 904.832 280.82 900.259 280.82Z" fill="white" stroke="#5B5B5B" stroke-width="5" stroke-miterlimit="10"/>
</g>
<path id="Vector_34" d="M1082.17 237.946C1082.17 237.946 1084.99 299.533 1076.75 309.578C1051.33 340.578 942.514 321.43 942.514 321.43L942.087 305.324C942.087 305.324 988.868 288.548 1030.69 281.773L1033.53 256.492C1033.53 256.492 1063.79 250.481 1082.17 237.946Z" fill="#C36F0B"/>
<path id="Vector_35" d="M1082.58 253.41C1066.95 261.416 1042.38 261.991 1033.22 261.744L1033.53 256.492C1033.53 256.492 1063.79 250.481 1082.17 237.946C1082.17 237.946 1082.46 244.362 1082.58 253.41Z" fill="#B65A18"/>
<g id="&#60;&#208;&#147;&#209;&#128;&#209;&#131;&#208;&#191;&#208;&#191;&#208;&#176;&#62;">
<path id="Vector_36" d="M943.699 303.855C943.699 303.855 929.209 292.299 922.446 294.317C915.683 296.334 914.812 304.942 914 307.139C913.187 309.336 912.473 317.203 912.491 319.611C912.509 322.019 919.294 323.205 921.997 323.205C924.7 323.205 942.415 323.416 945.828 322.477C949.24 321.538 943.699 303.855 943.699 303.855Z" fill="#C36F0B"/>
<path id="Vector_37" d="M921.997 323.209C919.303 323.209 914.44 323.38 912.944 321.578C909.981 317.984 910.892 311.632 911.53 309.205C912.073 307.121 915.688 296.338 922.446 294.317C922.446 294.317 914.197 309.385 921.997 323.209Z" fill="#B65A18"/>
</g>
<path id="Vector_38" d="M947.17 302.466H945.32C943.748 302.466 942.473 303.742 942.473 305.315V320.329C942.473 321.903 943.748 323.178 945.32 323.178H947.17C948.743 323.178 950.017 321.903 950.017 320.329V305.315C950.017 303.742 948.743 302.466 947.17 302.466Z" fill="#FFB000"/>
<path id="Vector_39" d="M950.731 305.652H941.679C940.21 305.652 939.02 306.842 939.02 308.311V317.369C939.02 318.838 940.21 320.028 941.679 320.028H950.731C952.199 320.028 953.39 318.838 953.39 317.369V308.311C953.39 306.842 952.199 305.652 950.731 305.652Z" fill="#3F4D79"/>
</g>
<g id="HEAD">
<path id="NECK" d="M998.312 97.193C998.312 97.193 992.025 109.571 998.312 121.103C1000.4 124.922 950.902 122.725 950.902 122.725L957.247 97.193H998.312Z" fill="#C36F0B"/>
<path id="HEAD_2" d="M952.878 58.8924C952.123 65.4383 951.602 80.826 944.234 97.4491C936.865 114.072 966.183 113.672 973.767 111.565C981.486 109.422 986.277 103.339 986.277 103.339C986.277 103.339 1001.65 99.2956 1001.64 93.0058C1001.64 88.1402 993.844 90.4854 993.844 90.4854C993.844 90.4854 998.168 57.8501 990.373 56.1608C982.577 54.4716 953.744 51.3356 952.878 58.8924Z" fill="#C36F0B"/>
<g id="HAIR">
<path id="Vector_40" d="M993.435 91.3031C990.741 92.5431 984.118 85.3232 987.548 77.3756C991.653 67.8914 992.91 59.7955 985.622 58.2005C978.334 56.6056 971.253 65.1553 956.304 60.9411C941.355 56.7269 943.627 37.9787 956.475 36.5051C969.322 35.0315 971.006 44.7133 973.089 44.9245C975.173 45.1357 989.326 38.8054 997.234 47.0226C1003.8 53.8471 1001.47 58.0074 1003.26 58.4297C1005.06 58.852 1011.21 61.3589 1010.79 67.8914C1010.37 74.4238 999.955 90.4584 999.955 90.4584C999.955 90.4584 997.535 89.4071 993.435 91.3031Z" fill="#612A03"/>
<path id="Vector_41" d="M981.365 57.3649C973.861 58.8699 966.578 66.4492 951.625 62.235C936.672 58.0208 938.944 37.1431 951.791 35.6694" stroke="#612A03" stroke-width="3" stroke-miterlimit="10"/>
<path id="Vector_42" d="M1000.74 58.4207C1002.4 57.6344 1008.78 55.761 1012.52 61.1163" stroke="#612A03" stroke-width="3" stroke-miterlimit="10"/>
<path id="beard" d="M996.323 87.1742C993.902 89.7036 988.24 98.6442 987.18 108.191C986.12 117.738 979.816 125.362 963.83 124.729C947.844 124.096 938.948 119.67 938.109 114.396C937.269 109.121 945.073 95.3824 945.073 95.3824C945.073 95.3824 950.983 85.3546 959.618 87.2955C968.253 89.2364 969.946 103.438 975.411 103.375C985.653 103.254 990.512 84.1416 990.512 84.1416L996.323 87.1742Z" fill="#612A03"/>
</g>
<g id="HEADPHONES">
<path id="Vector_43" d="M999.161 91.1593V43.6665C999.161 42.2653 998.604 40.9214 997.614 39.9305C996.624 38.9397 995.28 38.3831 993.88 38.3831H978.9C978.206 38.3831 977.52 38.5197 976.88 38.7853C976.239 39.0509 975.657 39.4401 975.167 39.9308C974.677 40.4215 974.289 41.004 974.024 41.645C973.759 42.286 973.623 42.9729 973.623 43.6665" stroke="#D8BAA3" stroke-width="5" stroke-miterlimit="10" stroke-linecap="round"/>
<path id="Vector_44" d="M998.532 96.1417V102.881C998.532 104.728 997.799 106.499 996.493 107.805C995.188 109.111 993.418 109.845 991.572 109.845H957.844" stroke="#D8BAA3" stroke-width="5" stroke-miterlimit="10" stroke-linecap="round"/>
<path id="Vector_45" d="M1005.23 96.1043C1006.04 91.6932 1003.7 87.5609 999.999 86.8747C996.295 86.1885 992.63 89.2082 991.814 93.6193C990.997 98.0305 993.338 102.163 997.042 102.849C1000.75 103.535 1004.41 100.515 1005.23 96.1043Z" fill="#F8F8F8" fill-opacity="0.99" stroke="#D8BAA3" stroke-width="5" stroke-miterlimit="10" stroke-linecap="round"/>
</g>
</g>
</g>
<g id="COMPUTER">
<path id="Vector_46" d="M883.182 272.437H660.385C657.637 272.437 655.392 269.97 655.392 266.924L629.347 125.722C629.347 122.676 631.592 120.209 634.349 120.209H857.151C859.912 120.209 862.153 122.676 862.153 125.722L888.198 266.924C888.189 269.97 885.948 272.437 883.182 272.437Z" stroke="#C2C2C2" stroke-width="6" stroke-miterlimit="10"/>
<path id="Vector_47" d="M877.739 272.437H660.057C657.399 272.437 655.248 270.065 655.248 267.135L630.214 131.378C630.214 128.449 632.369 126.077 635.028 126.077H852.705C855.364 126.077 857.519 128.449 857.519 131.378L882.549 267.135C882.549 270.065 880.393 272.437 877.739 272.437Z" fill="#F8F8F8" stroke="#C2C2C2" stroke-width="6" stroke-miterlimit="10"/>
<path id="Vector_48" d="M771.873 225.596L783.903 271.134H771.873V225.596Z" fill="#F0E1D4"/>
<path id="Vector_49" d="M839.575 316.632V322.046L761.366 303.028L683.147 322.046V316.632L753.175 293.926V226.894H770.571V294.258L839.575 316.632Z" fill="#F8F8F8" stroke="#C2C2C2" stroke-width="6" stroke-miterlimit="10"/>
<g id="Vector_50">
<path d="M682.28 322.477H949.986C951.113 322.478 952.229 322.7 953.27 323.133C954.311 323.565 955.256 324.199 956.052 324.997C956.848 325.795 957.48 326.742 957.91 327.785C958.339 328.827 958.56 329.944 958.558 331.072V333.318C958.558 335.593 957.655 337.774 956.047 339.383C954.44 340.991 952.259 341.895 949.986 341.895H682.415" fill="#F8F8F8"/>
<path d="M682.28 322.477H949.986C951.113 322.478 952.229 322.7 953.27 323.133C954.311 323.565 955.256 324.199 956.052 324.997C956.848 325.795 957.48 326.742 957.91 327.785C958.339 328.827 958.56 329.944 958.558 331.072V333.318C958.558 335.593 957.655 337.774 956.047 339.383C954.44 340.991 952.259 341.895 949.986 341.895H682.415" stroke="#C2C2C2" stroke-width="6" stroke-miterlimit="10"/>
</g>
<path id="Vector_51" d="M883.182 348.189V342.227H901.858V362.948L883.182 348.189Z" fill="#F0E1D4"/>
<g id="Vector_52">
<path d="M883.182 642.823V342.227H901.858V642.922" fill="#F8F8F8"/>
<path d="M883.182 642.823V342.227H901.858V642.922" stroke="#C2C2C2" stroke-width="6" stroke-miterlimit="10"/>
</g>
<g id="Vector_53">
<path d="M641 639.596V339H659.676V639.695" fill="#F8F8F8"/>
<path d="M641 639.596V339H659.676V639.695" stroke="#C2C2C2" stroke-width="6" stroke-miterlimit="10"/>
</g>
</g>
</g>
</g>
</g>
<g id="helpdesk_w 1" clip-path="url(#clip1)">
<g id="Layer 2_3">
<g id="&#208;&#161;&#208;&#187;&#208;&#190;&#208;&#185; 1">
<g id="1">
<g id="CHAIR_2">
<path id="Vector_54" d="M342.79 446.901H238.919C229.179 446.901 219.838 443.03 212.95 436.14C206.063 429.251 202.194 419.906 202.194 410.162V348.999C202.194 344.927 203.811 341.021 206.69 338.141C209.568 335.262 213.473 333.644 217.544 333.644H295.945C297.274 333.642 298.591 333.902 299.82 334.41C301.049 334.918 302.166 335.664 303.106 336.604C304.046 337.545 304.791 338.662 305.299 339.891C305.807 341.12 306.067 342.438 306.065 343.768V410.162C306.065 419.906 309.935 429.251 316.822 436.14C323.709 443.03 333.05 446.901 342.79 446.901V446.901Z" fill="#F8F8F8" stroke="#D8BAA3" stroke-width="6" stroke-miterlimit="10"/>
<path id="Vector_55" d="M358.546 439.098C358.546 441.166 357.725 443.151 356.263 444.614C354.801 446.077 352.818 446.9 350.75 446.901H238.919C234.096 446.901 229.321 445.95 224.865 444.104C220.409 442.258 216.361 439.552 212.95 436.14C209.54 432.729 206.835 428.679 204.989 424.222C203.144 419.764 202.194 414.987 202.194 410.162V348.999C202.194 344.927 203.811 341.021 206.69 338.141C209.568 335.262 213.473 333.644 217.544 333.644H218.738C217.276 335.073 216.116 336.781 215.325 338.666C214.534 340.551 214.129 342.576 214.133 344.62V405.783C214.129 409.726 214.761 413.643 216.004 417.384C217.352 421.442 219.943 424.971 223.41 427.473C226.877 429.974 231.043 431.319 235.317 431.318H350.73C351.754 431.316 352.768 431.515 353.715 431.904C354.662 432.294 355.523 432.866 356.249 433.589C356.975 434.311 357.551 435.169 357.945 436.115C358.339 437.06 358.544 438.073 358.546 439.098V439.098Z" fill="#F0E1D4" stroke="#D8BAA3" stroke-width="6" stroke-miterlimit="10"/>
<path id="Vector_56" d="M259.542 446.881H316.238V453.82C316.238 455.315 315.644 456.749 314.587 457.806C313.53 458.864 312.097 459.457 310.602 459.457H265.173C263.679 459.457 262.245 458.864 261.189 457.806C260.132 456.749 259.538 455.315 259.538 453.82V446.881H259.542Z" fill="#F8F8F8" stroke="#D8BAA3" stroke-width="6" stroke-miterlimit="10"/>
<path id="Vector_57" d="M293.859 459.473H281.92V555.109H293.859V459.473Z" fill="#F0E1D4" stroke="#D8BAA3" stroke-width="6" stroke-miterlimit="10"/>
<path id="Vector_58" d="M294.56 555.109H281.22C278.529 555.109 276.349 557.291 276.349 559.982V574.908C276.349 577.599 278.529 579.781 281.22 579.781H294.56C297.25 579.781 299.431 577.599 299.431 574.908V559.982C299.431 557.291 297.25 555.109 294.56 555.109Z" fill="#F8F8F8" stroke="#D8BAA3" stroke-width="6" stroke-miterlimit="10"/>
<path id="Vector_59" d="M235.047 602C235.047 596.107 237.387 590.456 241.552 586.289C245.718 582.122 251.367 579.781 257.258 579.781H318.522C324.413 579.781 330.062 582.122 334.227 586.289C338.393 590.456 340.733 596.107 340.733 602" stroke="#D8BAA3" stroke-width="6" stroke-miterlimit="10"/>
<path id="Vector_60" d="M267.334 602V592.139C267.334 588.865 268.634 585.726 270.948 583.412C273.262 581.097 276.4 579.797 279.672 579.797H296.116C299.388 579.797 302.526 581.097 304.84 583.412C307.153 585.726 308.453 588.865 308.453 592.139V602" stroke="#D8BAA3" stroke-width="6" stroke-miterlimit="10"/>
</g>
<g id="WOMAN">
<path id="SKIRT" d="M253.409 333.739C253.409 333.739 202.512 406.695 255.125 425.502C285.295 436.291 341.7 436.892 384.327 435.455C400.494 434.899 416.085 429.316 428.932 419.483C441.779 409.65 451.243 396.055 456.006 380.59L457.562 375.55C457.562 375.55 448.914 345.794 315.915 333.64C315.915 333.64 287.818 339.321 253.409 333.739Z" fill="#722D54"/>
<g id="LEGS_3">
<g id="RIGHT">
<path id="SHOE" d="M550 602H520.498C516.825 602 509.753 587.118 507.202 587.246C504.651 587.373 502.394 602 502.394 602H500.126C489.985 572.937 503.815 567.806 503.815 567.806L503.895 567.857C506.541 581.791 526.149 584.578 530.161 585.008L530.877 585.474C530.877 585.474 540.246 594.846 544.806 595.479C549.367 596.112 550 602 550 602Z" fill="#722D54"/>
<path id="LEG" d="M454.534 372.675C472.873 378.293 481.883 505.392 530.881 585.474C530.881 585.474 506.382 583.762 503.819 567.806C503.819 567.806 429.445 492.856 427.46 448.111C425.474 403.366 443.255 369.22 454.534 372.675Z" fill="#B65A18"/>
</g>
<g id="LEFT">
<path id="SHOE_2" d="M470.429 602H440.935C437.262 602 430.19 587.118 427.643 587.246C425.096 587.373 422.831 602 422.831 602H420.563C410.422 572.937 424.252 567.806 424.252 567.806L424.312 567.845L424.336 567.921C419.771 582.349 449.774 585.98 452.11 586.235C454.462 588.496 461.486 594.953 465.243 595.475C469.804 596.112 470.429 602 470.429 602Z" fill="#722D54"/>
<path id="LEG_2" d="M424.335 567.909C424.335 567.909 394.018 472.209 402.121 434.694C411.99 389.026 438.563 364.315 451.286 372.675C464.01 381.036 429.461 509.692 442.093 567.909C443.649 575.075 452.253 586.223 452.253 586.223C452.253 586.223 419.588 582.93 424.335 567.909Z" fill="#C36F0B"/>
</g>
</g>
<g id="BLOUSE">
<path id="Vector_61" d="M316.711 189.791C316.711 189.791 318.132 213.591 341.819 255.979C351.876 273.978 330.74 286.236 330.147 288.402C329.554 290.567 316.711 335.63 316.711 335.63C316.711 335.63 289.251 343.931 252.51 335.63C252.51 335.63 241.645 227.963 248.558 212.122C254.683 198.092 284.515 180.897 284.515 180.897C284.515 180.897 298.54 189.987 316.711 189.791Z" fill="#F0E1D4"/>
<path id="Vector_62" d="M275.274 188.187C287.567 205.35 301.107 202.042 301.107 202.042L309.782 190.62C309.782 190.62 315.123 201.389 318.494 203.757" stroke="#D8BAA3" stroke-width="5" stroke-linecap="round" stroke-linejoin="round"/>
<path id="Vector_63" d="M289.287 274.209C297.68 288.911 317.36 282.967 317.36 282.967" stroke="#D8BAA3" stroke-width="5" stroke-miterlimit="10" stroke-linecap="round"/>
</g>
<g id="w-hand">
<path id="Vector_64" d="M376.264 326.474C375.709 326.834 375.049 326.998 374.39 326.938C373.731 326.878 373.111 326.598 372.631 326.143C371.473 325.144 369.503 322.751 367.915 321.441C369.062 323.82 370.079 326.261 370.959 328.751C368.419 329.025 365.852 328.89 363.354 328.353C361.253 327.931 358.578 323.954 355.892 321.66C353.205 319.367 348.179 321.183 342.89 320.908C337.601 320.633 333.128 313.451 333.128 313.451C333.128 313.451 248.455 332.457 235.138 318.229C231.859 314.729 230.426 311.405 230.665 308.467C229.714 297.861 230.773 284.237 232.878 271.231C239.791 273.659 252.43 277.632 265.066 279.229C263.984 286.073 262.865 292.303 262.014 296.83C275.023 297.813 329.291 301.966 336.781 303.255C344.812 304.625 360.87 312.647 363.613 313.849C365.937 314.673 370.167 318.328 371.469 319.706C372.77 321.083 376.264 326.474 376.264 326.474Z" fill="#C36F0B"/>
<path id="Vector_65" d="M265.074 279.225C264.871 280.523 264.676 281.797 264.457 283.039C250.13 280.833 237.307 282.494 231.238 283.6C231.664 279.492 232.225 275.327 232.89 271.227C239.787 273.655 252.422 277.628 265.074 279.225Z" fill="#B65A18"/>
<path id="Vector_66" d="M253.931 204.235C245.971 211.628 235.994 238.207 227.501 269.232C227.501 269.232 247.969 277.533 267.525 279.508C267.525 279.508 276.611 238.8 276.412 217.851C276.213 196.902 264.449 194.497 253.931 204.235Z" fill="#F0E1D4"/>
<path id="Vector_67" d="M267.896 279.508C267.896 279.508 271.39 264.924 274.884 247.093" stroke="#D8BAA3" stroke-width="5" stroke-miterlimit="10" stroke-linecap="round"/>
<path id="Vector_68" d="M368.376 327.919C368.376 327.919 363.457 319.208 361.782 318.288C358.853 316.644 355.016 314.482 355.016 314.482" stroke="#B65A18" stroke-width="3" stroke-miterlimit="10" stroke-linecap="round"/>
<path id="Vector_69" d="M364.93 327.74C364.93 327.74 360.576 320.574 358.912 319.638C355.983 317.994 352.147 315.832 352.147 315.832" stroke="#B65A18" stroke-width="3" stroke-miterlimit="10" stroke-linecap="round"/>
</g>
<g id="w-head">
<g id="NECK_2">
<path id="Vector_70" d="M295.774 151.652C295.774 151.652 297.553 170.228 284.515 180.898C284.515 180.898 301.107 191.965 316.711 189.791L322.243 166.275L295.774 151.652Z" fill="#C36F0B"/>
<path id="Vector_71" d="M322.247 166.275L316.715 189.791L316.031 189.875C298.082 181.371 296.024 160.056 295.802 156.111C295.891 154.625 295.882 153.136 295.774 151.652L322.247 166.275Z" fill="#B65A18"/>
</g>
<path id="HEAD_3" d="M295.774 151.652C295.774 151.652 298.452 175.957 329.271 179.811C329.271 179.811 344.53 170.765 342.759 141.07C341.326 117.011 313.862 111.322 303.49 124.663C293.119 138.004 295.774 151.652 295.774 151.652Z" fill="#C36F0B"/>
<g id="HAIR_2">
<path id="Vector_72" d="M333.987 107.158C341.601 108.806 358.455 118.771 350.053 139.406" stroke="#FFB000" stroke-width="3" stroke-miterlimit="10"/>
<path id="Vector_73" d="M296.343 106.68C296.343 106.68 303.379 89.2903 290.875 83.5414" stroke="#FFB000" stroke-width="3" stroke-miterlimit="10"/>
<path id="Vector_74" d="M317.567 135.528C310.722 131.149 307.836 122.123 308.724 118.771" stroke="#FFB000" stroke-width="3" stroke-miterlimit="10"/>
<path id="Vector_75" d="M295.423 158.218C295.423 158.218 276.416 148.715 279.99 125.795C280.268 124.081 280.717 122.399 281.331 120.775C278.494 120.934 267.215 120.735 262.248 108.246C257.345 95.9322 268.194 79.6013 286.811 85.0197C295.77 87.6274 296.287 99.6785 296.112 104.591C297.062 104.196 298.038 103.868 299.033 103.608C311.474 100.391 330.151 104.321 336.582 107.589C343.531 111.12 356.481 123.725 343.96 141.342C343.612 141.835 343.237 142.309 342.838 142.763C342.838 142.206 342.79 141.644 342.759 141.071C342.67 139.523 342.46 137.984 342.13 136.469C334.716 134.223 326.442 135.051 321.742 135.402C315.672 131.683 311.454 124.115 309.205 119.923C308.736 120.166 308.278 120.432 307.836 120.719C307.836 120.719 307.538 137.751 295.499 148.651C295.523 149.657 295.617 150.66 295.782 151.653L295.423 158.218Z" fill="#FFB000"/>
</g>
<g id="GLASSES">
<path id="Vector_76" d="M339.511 155.852C344.164 155.852 347.936 152.078 347.936 147.424C347.936 142.769 344.164 138.995 339.511 138.995C334.858 138.995 331.086 142.769 331.086 147.424C331.086 152.078 334.858 155.852 339.511 155.852Z" stroke="#F0E1D4" stroke-width="2" stroke-miterlimit="10"/>
<path id="Vector_77" d="M318.502 155.852C323.155 155.852 326.927 152.078 326.927 147.424C326.927 142.769 323.155 138.995 318.502 138.995C313.849 138.995 310.077 142.769 310.077 147.424C310.077 152.078 313.849 155.852 318.502 155.852Z" stroke="#F0E1D4" stroke-width="2" stroke-miterlimit="10"/>
<path id="Vector_78" d="M331.09 147.424H326.923" stroke="#F0E1D4" stroke-width="2" stroke-miterlimit="10"/>
<path id="Vector_79" d="M310.077 146.03L299.479 143.482" stroke="#F0E1D4" stroke-width="2" stroke-miterlimit="10"/>
</g>
<g id="HEADPHONES_2">
<path id="Vector_80" d="M295.384 144.119L302.086 104.475C302.295 103.301 302.734 102.18 303.377 101.175C304.02 100.171 304.855 99.3038 305.833 98.6224C306.811 97.941 307.914 97.4591 309.079 97.2043C310.243 96.9494 311.447 96.9267 312.62 97.1372L327.086 99.8962C327.979 100.072 328.767 100.592 329.279 101.345C329.791 102.098 329.985 103.022 329.82 103.917" stroke="#3F4D79" stroke-width="4" stroke-miterlimit="10" stroke-linecap="round"/>
<path id="Vector_81" d="M295.32 152.432L295.002 158.698C294.942 162.062 296.721 165.622 300.259 166.263L328.913 171.669" stroke="#3F4D79" stroke-width="4" stroke-miterlimit="10" stroke-linecap="round"/>
<path id="Vector_82" d="M294.999 155.221C298.522 155.2 301.358 151.782 301.333 147.587C301.308 143.392 298.432 140.008 294.908 140.029C291.385 140.05 288.549 143.468 288.574 147.663C288.599 151.858 291.475 155.242 294.999 155.221Z" fill="#3F4D79"/>
<path id="Vector_83" d="M329.074 174.885C330.982 174.873 332.52 173.565 332.511 171.962C332.501 170.359 330.947 169.069 329.039 169.08C327.132 169.091 325.593 170.4 325.602 172.003C325.612 173.606 327.166 174.896 329.074 174.885Z" fill="#3F4D79"/>
</g>
</g>
</g>
<g id="LAPTOP">
<path id="Vector_84" d="M427.945 334.261H434.508C435.976 334.261 437.413 333.832 438.641 333.026C439.869 332.221 440.835 331.074 441.421 329.726L483.865 232.187C484.359 231.039 484.56 229.786 484.452 228.54C484.343 227.295 483.928 226.095 483.242 225.05C482.557 224.004 481.624 223.145 480.525 222.549C479.427 221.952 478.198 221.638 476.948 221.633L427.945 334.261Z" fill="#F8F8F8" stroke="#D8BAA3" stroke-width="6" stroke-miterlimit="10"/>
<path id="Vector_85" d="M309.01 345.058H423.782C429.051 345.058 433.334 340.225 433.334 334.261H318.55C313.281 334.261 308.998 339.094 308.998 345.058H309.01Z" fill="#F8F8F8" stroke="#D8BAA3" stroke-width="6" stroke-miterlimit="10"/>
</g>
</g>
</g>
</g>
</g>
<g id="typing-balloon">
<g id="Layer 2_4">
<g id="Middle ground">
<path id="Vector_86" d="M532.421 384.036H703.579C729.769 384.036 751 362.789 751 336.579V314.457C751 288.247 729.769 267 703.579 267H532.421C506.231 267 485 288.247 485 314.457V336.579C485 362.789 506.231 384.036 532.421 384.036Z" fill="#9DE679"/>
<g id="typing-dots">
<path id="dot-3" d="M653.543 335.845C659.242 335.845 663.862 331.221 663.862 325.518C663.862 319.815 659.242 315.191 653.543 315.191C647.844 315.191 643.224 319.815 643.224 325.518C643.224 331.221 647.844 335.845 653.543 335.845Z" fill="white"/>
<path id="dot-2" d="M618 335.845C623.699 335.845 628.319 331.221 628.319 325.518C628.319 319.815 623.699 315.191 618 315.191C612.301 315.191 607.681 319.815 607.681 325.518C607.681 331.221 612.301 335.845 618 335.845Z" fill="white"/>
<path id="dot-1" d="M582.457 335.845C588.156 335.845 592.776 331.221 592.776 325.518C592.776 319.815 588.156 315.191 582.457 315.191C576.758 315.191 572.138 319.815 572.138 325.518C572.138 331.221 576.758 335.845 582.457 335.845Z" fill="white"/>
</g>
<path id="Vector_87" d="M659.439 269.598L698 234.535L698.602 269.614L659.439 269.598Z" fill="#9DE679"/>
</g>
</g>
</g>
<g id="app-notification">
<g id="Layer 2_5">
<g id="Layer 1">
<path id="Vector_88" d="M494.328 25.1824H402.49C384.546 25.1824 370 39.7286 370 57.6722V149.51C370 167.454 384.546 182 402.49 182H494.328C512.271 182 526.818 167.454 526.818 149.51V57.6722C526.818 39.7286 512.271 25.1824 494.328 25.1824Z" fill="#EEEEEE"/>
<g id="notify-alert">
<path id="Vector_89" d="M518.233 67.5346C536.882 67.5346 552 52.4165 552 33.7673C552 15.1181 536.882 0 518.233 0C499.584 0 484.465 15.1181 484.465 33.7673C484.465 52.4165 499.584 67.5346 518.233 67.5346Z" fill="#E68079"/>
<path id="Vector_90" d="M528.297 39.7538C528.297 44.8727 523.828 48.3868 517.537 48.3868C513.459 48.3868 510.291 46.8667 508.167 43.7876L512.418 40.1865C513.805 41.7066 515.238 42.6155 517.225 42.6155C519.959 42.6155 521.694 41.1846 521.694 39.1472C521.694 37.0639 519.915 35.5461 517.225 35.5461H514.632V30.8164H515.76C518.926 30.8164 520.618 29.1681 520.444 27.3481C520.316 25.915 518.97 25.0038 517.104 25.0038C515.369 25.0038 513.462 25.828 512.377 27.1741L509.08 23.0533C511.292 20.7961 514.155 19.1478 517.972 19.1478C523.008 19.1478 527.129 22.1857 526.996 27.0871C526.996 29.3764 525.563 31.4368 523.178 32.6387C526.3 33.8108 528.297 36.4137 528.297 39.7538Z" fill="white"/>
</g>
</g>
</g>
</g>
</g>
<defs>
<clipPath id="clip0">
<rect width="487" height="609" fill="white" transform="translate(628 35)"/>
</clipPath>
<clipPath id="clip1">
<rect width="349" height="519" fill="white" transform="translate(201 83)"/>
</clipPath>
</defs>
</svg>
