<svg width="605" height="721" viewBox="0 0 605 721" fill="none" xmlns="http://www.w3.org/2000/svg">
<g clip-path="url(#clip0)">
<path d="M319.237 450.102V718.979" stroke="#FFB000" stroke-width="6" stroke-miterlimit="10"/>
<path d="M438.018 450.102V718.979" stroke="#FFB000" stroke-width="6" stroke-miterlimit="10"/>
<path d="M318.088 675.754H436.563" stroke="#FFB000" stroke-width="6" stroke-miterlimit="10"/>
<path d="M456.891 414.066H299.215C293.919 414.066 289.625 418.36 289.625 423.657V440.512C289.625 445.808 293.919 450.102 299.215 450.102H456.891C462.187 450.102 466.48 445.808 466.48 440.512V423.657C466.48 418.36 462.187 414.066 456.891 414.066Z" fill="white" stroke="#6562CF" stroke-width="6" stroke-miterlimit="10"/>
<path d="M435.119 154.469C444.894 151.726 458.409 121.371 443.6 104.933C428.792 88.4938 397.414 87.9972 370.776 91.9871C346.152 95.6768 313.81 109.962 326.136 140.772C343.664 184.581 435.119 154.469 435.119 154.469Z" fill="#A9E7CF"/>
<path d="M420.386 133.797C429.623 131.846 445.494 116.475 431.546 104.777C417.597 93.0784 396.115 91.9409 373.235 95.85C350.355 99.7591 326.644 107.849 337.527 130.027C348.41 152.205 420.386 133.797 420.386 133.797Z" fill="#6CC9A5"/>
<path d="M474.904 716.306C468.928 719.984 432.383 719.77 425.484 716.306C418.585 712.841 420.201 701.131 419.052 693.313C417.903 685.495 401.582 670.794 400.664 665.73C399.746 660.666 417.441 649.638 420.513 645.146C417.984 652.606 443.3 654.24 445.338 649.407C444.345 667.11 457.353 695.253 468.022 697.794C474.736 699.399 480.879 712.628 474.904 716.306Z" fill="#DBDAFF"/>
<path d="M450.788 630.046L445.327 649.407C443.3 654.24 417.984 652.606 420.501 645.146C423.018 637.685 422.066 624.723 422.066 624.723L450.788 630.046Z" fill="#C36F0B"/>
<path d="M400.67 665.753C401.594 670.812 417.909 685.524 419.064 693.342C420.218 701.16 418.602 712.882 425.495 716.329C432.389 719.776 468.94 720.007 474.915 716.329" stroke="#6562CF" stroke-width="7" stroke-miterlimit="10" stroke-linecap="round"/>
<path d="M446.747 697.771C446.747 697.771 458.871 692.355 470.937 696.616" stroke="white" stroke-width="6" stroke-miterlimit="10" stroke-linecap="round"/>
<path d="M308.371 716.306C314.347 719.984 346.851 719.77 353.75 716.306C360.649 712.841 364.806 701.131 365.955 693.313C367.104 685.495 378.229 667.907 379.147 662.843C380.065 657.779 362.37 646.751 359.298 642.259C361.827 649.719 337.088 654.24 335.05 649.407C336.043 667.11 325.917 695.253 315.253 697.794C308.533 699.399 302.396 712.628 308.371 716.306Z" fill="#DBDAFF"/>
<path d="M322.672 628.892L335.062 649.407C337.088 654.24 361.827 649.719 359.31 642.259C356.792 634.799 356.013 622.99 356.013 622.99L322.672 628.892Z" fill="#C36F0B"/>
<path d="M379.147 662.866C378.229 667.924 367.104 685.524 365.955 693.342C364.806 701.16 360.643 712.882 353.744 716.329C346.845 719.776 314.347 720.007 308.366 716.329" stroke="#6562CF" stroke-width="7" stroke-miterlimit="10" stroke-linecap="round"/>
<path d="M336.528 697.771C336.528 697.771 324.433 692.355 312.338 696.616" stroke="white" stroke-width="6" stroke-miterlimit="10" stroke-linecap="round"/>
<path d="M319.352 336.237C319.352 336.237 199.117 395.133 199.117 431.36C199.117 495.983 306.657 632.298 325.126 630.508C343.595 628.718 361.786 624.809 361.076 616.991C360.366 609.173 321.691 486.589 291.635 450.299C291.635 450.299 302.604 433.028 371.151 433.785C404.186 434.149 432.989 436.395 433.699 437.463C434.409 438.531 397.783 510.02 416.472 620.56C418.105 630.191 458.38 634.233 462.283 628.903C466.186 623.574 528.7 435.869 522.666 420.932C516.633 405.994 453.964 352.497 423.4 336.22C401.386 324.504 319.352 336.237 319.352 336.237Z" fill="#3F4D79"/>
<path d="M285.018 149.474C269.771 157.846 246.984 232.927 246.984 232.927C246.984 232.927 192.079 165.526 189.539 164.891C186.999 164.256 172.248 183.945 172.248 183.945C172.248 183.945 200.912 311.946 245.627 314.792C264.396 315.987 280.267 305.098 293.297 289.184C299.071 308.441 304.463 324.319 304.463 324.319C306.772 332.403 263.68 354.662 273.512 360.777C273.512 360.777 307.061 349.864 366.261 365.131C437.042 383.4 471.261 369.542 464.569 364.23C457.878 358.918 447.37 341.648 443.739 330.094L450.269 267.918C450.269 267.918 473.12 325.925 507.661 325.925C548.866 325.925 586.525 199.94 586.525 199.94C571.878 199.524 559.743 189.061 559.743 189.061C544.259 199.94 512.032 238.049 512.032 238.049C512.032 238.049 491.946 177.323 482.322 163.511C472.698 149.699 441.332 138.815 420.386 133.797L337.527 130.027C331.967 128.964 297.991 140.611 285.018 149.474Z" fill="#A9E7CF"/>
<path d="M512.032 235.508C501.553 247.559 492.085 268.998 492.085 268.998" stroke="#6CC9A5" stroke-width="6" stroke-miterlimit="10"/>
<path d="M446.21 142.949C405.981 139.548 365.591 164.856 365.591 164.856C365.591 164.856 330.085 156.9 322.984 133.26" stroke="#6CC9A5" stroke-width="6" stroke-miterlimit="10"/>
<path d="M305.618 324.319C305.618 324.319 283.413 260.527 280.313 233.626" stroke="#6CC9A5" stroke-width="6" stroke-miterlimit="10" stroke-linecap="round"/>
<path d="M585.365 153.978C584.828 157.413 581.093 162.743 584.787 162.702C586.693 162.702 600.468 160.456 602.154 165.526C602.867 167.935 602.738 170.515 601.79 172.842C604.809 177.351 602.5 181.035 602.5 181.035C604.324 183.841 604.809 187.473 603.539 189.073C603.539 189.073 606.732 196.435 603.684 198.144C594.238 203.456 579.176 204.559 571.878 202.671C566.757 201.349 560.615 198.184 559.044 187.283C558.398 182.819 562.843 171.115 566.238 166.288C567.623 164.302 572.698 156.38 574.413 154.209C576.857 151.03 578.522 147.322 579.274 143.382C579.274 143.382 586.866 144.381 585.365 153.978Z" fill="#C36F0B"/>
<path d="M597.714 164.85C598.049 167.16 583.979 167.645 581.549 168.176C578.085 168.927 578.535 176.324 583.027 175.602C589.138 175.323 595.208 174.447 601.149 172.986" stroke="#B65A18" stroke-width="4" stroke-miterlimit="10" stroke-linecap="round"/>
<path d="M601.582 181.11C586.698 184.113 582.726 183.836 582.726 183.836C580.556 184.263 577.761 176.589 583.027 175.602" stroke="#B65A18" stroke-width="4" stroke-miterlimit="10" stroke-linecap="round"/>
<path d="M601.952 188.813C587.946 191.891 583.096 191.538 583.096 191.538C581.023 191.787 578.431 184.488 582.663 183.986" stroke="#B65A18" stroke-width="4" stroke-miterlimit="10" stroke-linecap="round"/>
<path d="M587.016 191.417C587.016 191.417 582.011 190.949 582.086 194.067C582.224 199.611 584.909 200.205 597.581 197.878" stroke="#B65A18" stroke-width="4" stroke-miterlimit="10" stroke-linecap="round"/>
<path d="M169.5 136.938C169.615 140.403 172.646 146.096 169.015 145.6C167.132 145.346 153.825 141.483 151.55 146.269C150.553 148.558 150.365 151.118 151.019 153.527C147.497 157.604 149.322 161.519 149.322 161.519C147.186 164.065 146.268 167.587 147.324 169.32C147.324 169.32 143.283 176.185 146.077 178.241C154.737 184.627 169.459 187.543 176.884 186.567C182.08 185.885 188.528 183.512 191.404 172.957C192.558 168.638 189.62 156.588 186.866 151.391C185.74 149.26 181.699 140.836 180.267 138.486C178.252 135.053 177.066 131.198 176.803 127.226C176.803 127.226 169.188 127.296 169.5 136.938Z" fill="#C36F0B"/>
<path d="M152.122 178.737C164.332 182.571 167.052 182.306 167.866 176.861C168.12 175.128 166.647 174.337 165.314 173.974C165.93 174.094 166.553 174.181 167.179 174.233C169.038 174.69 172.184 168.355 169.396 166.606C170.55 166.028 171.774 161.888 171.768 158.21C173.922 156.721 174.078 152.303 171.572 151.42C169.211 150.594 155.407 148.394 155.984 146.165L152.122 178.737Z" fill="#C36F0B"/>
<path d="M152.341 153.764C157.805 155.874 163.453 157.474 169.211 158.545C173.547 159.798 174.892 152.563 171.572 151.403C169.211 150.577 158.166 146.98 155.984 146.154" stroke="#B65A18" stroke-width="3" stroke-miterlimit="10" stroke-linecap="round"/>
<path d="M150.932 161.721C165.239 166.485 168.507 166.698 168.507 166.698C170.591 167.38 174.28 160.162 169.211 158.545" stroke="#B65A18" stroke-width="3" stroke-miterlimit="10" stroke-linecap="round"/>
<path d="M148.952 169.239C162.381 173.979 167.208 174.216 167.208 174.216C169.222 174.718 172.034 167.149 167.092 166.496" stroke="#B65A18" stroke-width="3" stroke-miterlimit="10" stroke-linecap="round"/>
<path d="M163.322 173.644C163.322 173.644 168.316 173.795 167.866 176.861C167.052 182.306 164.338 182.565 152.128 178.737" stroke="#B65A18" stroke-width="3" stroke-miterlimit="10" stroke-linecap="round"/>
<path d="M402.812 79.8038C402.812 79.8038 394.019 119.148 420.386 133.797C420.386 133.797 396.138 137.984 365.146 163.511C365.146 163.511 341.291 143.423 337.527 130.021C337.527 130.021 361.775 121.654 359.287 79.7864L402.812 79.8038Z" fill="#C36F0B"/>
<path d="M402.812 79.8043H359.287C361.798 121.661 337.527 130.039 337.527 130.039C337.527 130.039 385.925 130.039 399.613 86.8834L402.812 79.8043Z" fill="#B65A18"/>
<path d="M404.475 79.4169C404.475 79.4169 391.548 104.621 360.661 104.632C333.11 104.632 328.907 23.7546 369.938 22.6402C409.035 21.5778 404.001 67.8456 404.001 67.8456C404.001 67.8456 411.039 63.7518 413.596 68.0131C416.154 72.2744 404.475 79.4169 404.475 79.4169Z" fill="#C36F0B"/>
<path d="M386.375 25.6601C386.375 25.6601 385.931 39.6623 366.549 39.4486C349.72 39.2639 340.494 48.7911 339.594 55.6508" stroke="#3F4D79" stroke-width="3" stroke-miterlimit="10" stroke-linecap="round"/>
<path d="M439.519 53.3122C439.519 68.5674 421.108 81.7554 400.722 90.7053C399.515 91.2365 397.564 91.3577 395.093 91.1614C398.817 87.7634 401.983 83.8 404.475 79.4169C404.475 79.4169 416.085 72.1762 413.573 68.0131C411.062 63.8499 403.978 67.8398 403.978 67.8398C403.978 67.8398 407.506 35.5915 385.919 25.5735C385.752 25.8853 380.146 35.7705 363.576 36.296C347.815 36.7868 343.514 42.7976 341.713 49.0798C341.655 49.2992 341.597 49.5129 341.545 49.7323C339.514 58.0885 339.029 66.7459 340.113 75.2769L340.021 75.2422C338.491 73.383 317.586 46.8857 323.041 32.6756C328.971 17.2299 366.867 -4.55577 397.206 0.837234C414.151 3.85709 439.513 45.292 439.519 53.3122Z" fill="#3F4D79"/>
<path d="M302.107 271.96H69.5861C66.3955 271.956 63.2866 270.951 60.6973 269.086C58.108 267.221 56.1688 264.592 55.1527 261.567L5.8715 114.806C5.33015 113.194 5.18026 111.475 5.43422 109.793C5.68817 108.111 6.33867 106.513 7.33199 105.132C8.3253 103.751 9.63291 102.627 11.1468 101.851C12.6607 101.075 14.3374 100.671 16.0384 100.671H248.56C251.75 100.677 254.859 101.682 257.448 103.546C260.037 105.411 261.976 108.04 262.993 111.065L312.245 257.79C312.793 259.403 312.948 261.122 312.699 262.807C312.45 264.491 311.803 266.092 310.812 267.477C309.822 268.862 308.515 269.991 307.001 270.77C305.488 271.55 303.81 271.958 302.107 271.96V271.96Z" fill="#C7BFFF"/>
<path d="M296.802 277.682H64.2746C61.084 277.678 57.9751 276.673 55.3858 274.808C52.7965 272.944 50.8573 270.314 49.8413 267.289L0.577342 120.557C0.0361494 118.945 -0.113812 117.227 0.139841 115.545C0.393494 113.864 1.04348 112.267 2.03614 110.886C3.0288 109.505 4.33565 108.38 5.84878 107.604C7.36191 106.828 9.03792 106.423 10.7384 106.422H243.254C246.445 106.427 249.553 107.432 252.143 109.296C254.732 111.161 256.671 113.791 257.687 116.816L306.945 263.547C307.486 265.158 307.636 266.874 307.384 268.555C307.131 270.235 306.482 271.831 305.492 273.212C304.501 274.592 303.196 275.718 301.686 276.495C300.175 277.272 298.501 277.679 296.802 277.682Z" fill="white"/>
<path d="M302.107 271.486H69.5861C66.3953 271.483 63.286 270.478 60.6965 268.614C58.107 266.749 56.168 264.118 55.1527 261.093L5.8715 114.362C5.33015 112.749 5.18026 111.031 5.43422 109.348C5.68817 107.666 6.33867 106.069 7.33199 104.688C8.3253 103.307 9.63291 102.182 11.1468 101.406C12.6607 100.631 14.3374 100.226 16.0384 100.227H248.56C251.75 100.232 254.859 101.237 257.448 103.102C260.037 104.966 261.976 107.596 262.993 110.62L312.268 257.351C312.81 258.964 312.96 260.682 312.706 262.363C312.452 264.045 311.802 265.642 310.81 267.023C309.817 268.404 308.51 269.529 306.997 270.305C305.484 271.081 303.808 271.486 302.107 271.486V271.486Z" stroke="#6562CF" stroke-width="6" stroke-miterlimit="10"/>
<path d="M201.536 225.496L219.225 269.523H180.994C180.994 269.523 188.425 235.081 201.536 225.496Z" fill="#E2E2FF"/>
<path d="M226.962 324.741C151.683 324.741 183.338 244.175 198.309 227.442H140.373C125.409 244.187 84.9086 329.164 160.181 329.164H226.962V324.741Z" fill="white" stroke="#6562CF" stroke-width="6" stroke-miterlimit="10"/>
<path d="M163.059 189.042C166.303 183.902 163.684 176.422 157.21 172.335C150.736 168.249 142.859 169.102 139.615 174.242C136.371 179.382 138.989 186.862 145.463 190.949C151.937 195.035 159.815 194.182 163.059 189.042Z" fill="#E2E2FF"/>
<path d="M166.757 185.922C170 180.782 167.382 173.303 160.908 169.216C154.434 165.129 146.556 165.983 143.313 171.122C140.069 176.262 142.687 183.742 149.161 187.829C155.635 191.916 163.513 191.062 166.757 185.922Z" stroke="#6562CF" stroke-width="6" stroke-miterlimit="10"/>
<path d="M54.1251 329.164H398.892C403.961 329.164 408.071 332.998 408.071 337.733C408.071 342.462 403.961 346.296 398.892 346.296H54.1251V329.164Z" fill="white"/>
<path d="M54.1251 329.164H398.892C403.961 329.164 408.071 332.998 408.071 337.733C408.071 342.462 403.961 346.296 398.892 346.296H54.1251" stroke="#6562CF" stroke-width="6" stroke-miterlimit="10"/>
</g>
<defs>
<clipPath id="clip0">
<rect width="605" height="721" fill="white"/>
</clipPath>
</defs>
</svg>
