<svg width="483" height="571" viewBox="0 0 483 571" fill="none" xmlns="http://www.w3.org/2000/svg">
<g id="login_safe">
<g id="Group 1">
<g id="character 22 1" clip-path="url(#clip0)">
<g id="circle-bg 1" clip-path="url(#clip1)">
<g id="Layer 2">
<g id="Background">
<path id="Vector" d="M271.293 593.436C366.422 592.48 443.38 575.765 443.182 556.102C442.984 536.439 365.707 521.274 270.578 522.23C175.449 523.186 98.4914 539.901 98.6889 559.564C98.8865 579.227 176.164 594.392 271.293 593.436Z" fill="#DEECE7"/>
</g>
</g>
</g>
<g id="Layer 2_2">
<g id="&#208;&#161;&#208;&#187;&#208;&#190;&#208;&#185; 1">
<g id="2">
<g id="COMPUTER">
<path id="Vector_2" d="M302.352 245.367V249.568L363.195 234.816L424.039 249.568V245.367L369.565 227.754V175.76H356.033V228.013L302.352 245.367Z" fill="white" stroke="#C2C2C2" stroke-width="6" stroke-miterlimit="10"/>
<g id="Vector_3">
<path d="M475 252H280.083C279.021 251.999 277.971 252.182 276.99 252.537C276.009 252.891 275.118 253.412 274.368 254.068C273.617 254.724 273.022 255.503 272.615 256.36C272.209 257.218 272 258.137 272 259.065V260.935C272.001 262.809 272.853 264.606 274.369 265.931C275.885 267.256 277.94 268 280.083 268H474.604" fill="white"/>
<path d="M475 252H280.083C279.021 251.999 277.971 252.182 276.99 252.537C276.009 252.891 275.118 253.412 274.368 254.068C273.617 254.724 273.022 255.503 272.615 256.36C272.209 257.218 272 258.137 272 259.065V260.935C272.001 262.809 272.853 264.606 274.369 265.931C275.885 267.256 277.94 268 280.083 268H474.604" stroke="#7A7A7A" stroke-width="6" stroke-miterlimit="10" stroke-linecap="round"/>
</g>
<path id="Vector_4" d="M317.924 343.835V267.961H302.96V343.487" fill="white"/>
<path id="Vector_5" d="M317.924 272.726V267.961H302.96V284.52L317.924 272.726Z" fill="#F0E1D4"/>
<path id="Vector_6" d="M317.924 338.044V267.961H302.96V342.754" stroke="#7A7A7A" stroke-width="6" stroke-miterlimit="10" stroke-linecap="round"/>
<path id="Vector_7" d="M268.43 211.083H441.746C443.79 211.083 445.465 209.353 445.616 207.153C445.63 206.924 445.656 206.696 445.693 206.469L465.754 98.0062C465.942 97.0965 465.838 96.1508 465.456 95.3036C465.161 94.6284 464.678 94.0516 464.065 93.6411C463.452 93.2307 462.735 93.0037 461.996 92.9871H288.68C286.637 92.9871 284.962 94.7206 284.811 96.9213C284.797 97.149 284.771 97.3758 284.733 97.6008L264.681 206.068C264.493 206.978 264.597 207.923 264.979 208.77C265.274 209.444 265.755 210.019 266.367 210.429C266.978 210.838 267.694 211.065 268.43 211.083V211.083Z" fill="white" stroke="#C2C2C2" stroke-width="7" stroke-miterlimit="10"/>
<path id="Vector_8" d="M273.248 205.871H438.585C440.558 205.871 442.157 204.118 442.157 201.948L460.731 101.473C460.731 99.3072 459.133 97.5505 457.159 97.5505H291.827C289.857 97.5505 288.255 99.3072 288.255 101.473L269.68 201.948C269.68 204.118 271.279 205.871 273.248 205.871Z" fill="white" stroke="#C2C2C2" stroke-width="7" stroke-miterlimit="10"/>
</g>
<g id="WOMAN">
<g id="LEGS">
<g id="RIGHT">
<g id="FOOT">
<path id="Vector_9" d="M231.596 541.986L226.438 506.643C243.615 508.574 251.335 506.643 251.335 506.643L245.461 533.492C245.589 537.847 254.748 555.306 259.593 556.78C264.438 558.255 242.261 562.738 231.596 541.986Z" fill="#FFCFC9"/>
<path id="Vector_10" d="M272.321 570.68H230.191C230.191 570.68 223.001 557.167 224.124 548.171C225.559 536.588 231.964 535.233 231.964 535.233C237.873 535.233 236.352 549.935 247.628 555.059C253.247 557.611 258.053 556.008 262.914 557.487C273.776 560.792 272.321 570.68 272.321 570.68Z" fill="#3F4D90"/>
</g>
<path id="LEG" d="M296.065 378.652C292.323 385.493 268.358 433.55 251.332 506.643C251.332 506.643 243.348 509.157 226.434 506.643C226.434 506.643 211.029 418.183 228.009 389.918L296.065 378.652Z" fill="#642648"/>
</g>
<g id="LEFT">
<path id="LEG_2" d="M162.328 288.35C162.328 288.35 138.154 348.757 151.079 371.791C172.618 410.149 296.065 378.652 296.065 378.652C296.065 378.652 269.113 411.689 300.461 506.06C300.461 506.06 301.591 509.898 325.812 506.832C325.812 506.832 355.5 370.737 355.504 341.734C355.504 317.99 312.937 310.6 243.333 315.589C243.333 315.589 234.138 307.35 227.212 290.107C227.212 290.084 206.934 296.408 162.328 288.35Z" fill="#722D54"/>
<g id="FOOT_2">
<path id="Vector_11" d="M305.507 541.986L300.349 506.643C317.527 508.574 325.634 506.643 325.634 506.643L319.372 533.492C319.5 537.847 328.66 555.306 333.505 556.78C338.349 558.255 316.172 562.738 305.507 541.986Z" fill="#FFCFC9"/>
<path id="Vector_12" d="M346.232 570.68H304.103C304.103 570.68 296.913 557.167 298.035 548.171C299.471 536.588 305.875 535.233 305.875 535.233C311.784 535.233 310.263 549.935 321.539 555.059C327.158 557.611 331.964 556.008 336.825 557.487C347.687 560.792 346.232 570.68 346.232 570.68Z" fill="#3F4D90"/>
</g>
</g>
</g>
<g id="BLOUSE">
<path id="BLOUSE_2" d="M144.868 204.346C151.656 232.013 161.121 280.351 161.388 286.906C161.655 293.462 207.689 297.651 228.179 291.624C228.179 291.624 233.84 259.139 235.257 241.541C245.995 256.599 256.95 268.297 264.396 268.297C291.716 268.297 336.782 253.012 340.199 249.344L338.214 239.036C326.918 239.298 271.489 232.642 271.489 232.642C271.489 232.642 249.462 176.729 235.059 165.181L234.997 165.127C225.54 156.417 200.987 153.626 195.484 152.274C189.792 150.877 160.761 146.946 160.761 146.946C150.913 153.294 138.828 179.706 144.868 204.346Z" fill="#F3E7DD"/>
<g id="PATTERN">
<path id="Vector_13" d="M228.075 161.946C228.076 162.593 228.275 163.224 228.646 163.755C229.016 164.285 229.541 164.691 230.149 164.916C230.756 165.141 231.419 165.175 232.047 165.014C232.675 164.853 233.239 164.505 233.662 164.015C231.989 162.764 230.188 161.69 228.291 160.811C228.148 161.172 228.075 161.557 228.075 161.946V161.946Z" fill="white"/>
<path id="Vector_14" d="M218.122 165.119C216.367 165.119 214.945 163.7 214.945 161.95C214.945 160.199 216.367 158.78 218.122 158.78C219.876 158.78 221.299 160.199 221.299 161.95C221.299 163.7 219.876 165.119 218.122 165.119Z" fill="white"/>
<path id="Vector_15" d="M204.988 165.119C203.233 165.119 201.811 163.7 201.811 161.95C201.811 160.199 203.233 158.78 204.988 158.78C206.743 158.78 208.165 160.199 208.165 161.95C208.165 163.7 206.743 165.119 204.988 165.119Z" fill="white"/>
<path id="Vector_16" d="M191.858 165.119C190.104 165.119 188.681 163.7 188.681 161.95C188.681 160.199 190.104 158.78 191.858 158.78C193.613 158.78 195.035 160.199 195.035 161.95C195.035 163.7 193.613 165.119 191.858 165.119Z" fill="white"/>
<path id="Vector_17" d="M178.724 165.119C176.97 165.119 175.547 163.7 175.547 161.95C175.547 160.199 176.97 158.78 178.724 158.78C180.479 158.78 181.901 160.199 181.901 161.95C181.901 163.7 180.479 165.119 178.724 165.119Z" fill="white"/>
<path id="Vector_18" d="M165.594 165.119C163.84 165.119 162.417 163.7 162.417 161.95C162.417 160.199 163.84 158.78 165.594 158.78C167.349 158.78 168.771 160.199 168.771 161.95C168.771 163.7 167.349 165.119 165.594 165.119Z" fill="white"/>
<path id="Vector_19" d="M149.326 162.455C149.424 163.052 149.692 163.609 150.097 164.059C150.502 164.509 151.028 164.835 151.612 164.996C152.196 165.158 152.815 165.15 153.394 164.972C153.974 164.794 154.491 164.455 154.883 163.994C155.276 163.532 155.528 162.969 155.609 162.369C155.691 161.77 155.599 161.159 155.344 160.61C155.09 160.061 154.683 159.597 154.172 159.271C153.661 158.945 153.067 158.772 152.461 158.772C151.92 158.764 151.386 158.897 150.913 159.158C150.375 160.243 149.841 161.313 149.326 162.455Z" fill="white"/>
<path id="Vector_20" d="M234.642 170.822C234.635 171.599 234.914 172.352 235.428 172.936C235.941 173.521 236.652 173.897 237.425 173.992C238.198 174.087 238.979 173.896 239.62 173.454C240.261 173.011 240.716 172.35 240.899 171.594C239.894 170.231 238.818 168.922 237.675 167.672C236.861 167.707 236.091 168.054 235.526 168.641C234.962 169.228 234.645 170.009 234.642 170.822V170.822Z" fill="white"/>
<path id="Vector_21" d="M224.689 173.996C222.934 173.996 221.512 172.576 221.512 170.826C221.512 169.075 222.934 167.656 224.689 167.656C226.443 167.656 227.866 169.075 227.866 170.826C227.866 172.576 226.443 173.996 224.689 173.996Z" fill="white"/>
<path id="Vector_22" d="M211.555 173.996C209.8 173.996 208.378 172.576 208.378 170.826C208.378 169.075 209.8 167.656 211.555 167.656C213.309 167.656 214.732 169.075 214.732 170.826C214.732 172.576 213.309 173.996 211.555 173.996Z" fill="white"/>
<path id="Vector_23" d="M198.425 173.996C196.67 173.996 195.248 172.576 195.248 170.826C195.248 169.075 196.67 167.656 198.425 167.656C200.18 167.656 201.602 169.075 201.602 170.826C201.602 172.576 200.18 173.996 198.425 173.996Z" fill="white"/>
<path id="Vector_24" d="M185.291 173.996C183.537 173.996 182.114 172.576 182.114 170.826C182.114 169.075 183.537 167.656 185.291 167.656C187.046 167.656 188.468 169.075 188.468 170.826C188.468 172.576 187.046 173.996 185.291 173.996Z" fill="white"/>
<path id="Vector_25" d="M172.161 173.996C170.407 173.996 168.984 172.576 168.984 170.826C168.984 169.075 170.407 167.656 172.161 167.656C173.916 167.656 175.338 169.075 175.338 170.826C175.338 172.576 173.916 173.996 172.161 173.996Z" fill="white"/>
<path id="Vector_26" d="M159.028 173.996C157.273 173.996 155.851 172.576 155.851 170.826C155.851 169.075 157.273 167.656 159.028 167.656C160.782 167.656 162.205 169.075 162.205 170.826C162.205 172.576 160.782 173.996 159.028 173.996Z" fill="white"/>
<path id="Vector_27" d="M145.352 173.941C145.531 173.976 145.712 173.993 145.894 173.992C146.624 173.991 147.331 173.739 147.897 173.279C148.463 172.818 148.852 172.178 149 171.465C149.148 170.752 149.046 170.009 148.71 169.363C148.374 168.716 147.825 168.205 147.155 167.915C146.463 169.845 145.874 171.86 145.352 173.941Z" fill="white"/>
<path id="Vector_28" d="M195.244 152.649C195.245 153.421 195.529 154.167 196.042 154.746C196.555 155.324 197.263 155.696 198.031 155.791C198.8 155.885 199.576 155.697 200.215 155.261C200.854 154.824 201.312 154.17 201.501 153.421C198.816 152.938 196.691 152.572 195.484 152.263L195.279 152.213C195.253 152.356 195.242 152.503 195.244 152.649V152.649Z" fill="white"/>
<path id="Vector_29" d="M182.114 152.649C182.11 153.146 182.222 153.637 182.443 154.083C182.664 154.529 182.987 154.916 183.386 155.214C183.785 155.512 184.249 155.713 184.739 155.799C185.23 155.886 185.734 155.855 186.212 155.711C186.689 155.567 187.125 155.313 187.485 154.97C187.846 154.627 188.12 154.203 188.286 153.735C188.453 153.266 188.506 152.765 188.442 152.272C188.378 151.778 188.199 151.307 187.919 150.896C186.472 150.66 184.908 150.421 183.275 150.17C182.908 150.47 182.613 150.849 182.412 151.278C182.212 151.707 182.11 152.175 182.114 152.649V152.649Z" fill="white"/>
<path id="Vector_30" d="M172.161 155.819C170.407 155.819 168.984 154.399 168.984 152.649C168.984 150.898 170.407 149.479 172.161 149.479C173.916 149.479 175.338 150.898 175.338 152.649C175.338 154.399 173.916 155.819 172.161 155.819Z" fill="white"/>
<path id="Vector_31" d="M159.028 155.819C157.273 155.819 155.851 154.399 155.851 152.649C155.851 150.898 157.273 149.479 159.028 149.479C160.782 149.479 162.205 150.898 162.205 152.649C162.205 154.399 160.782 155.819 159.028 155.819Z" fill="white"/>
<path id="Vector_32" d="M231.255 183.713C229.501 183.713 228.078 182.294 228.078 180.543C228.078 178.793 229.501 177.374 231.255 177.374C233.01 177.374 234.433 178.793 234.433 180.543C234.433 182.294 233.01 183.713 231.255 183.713Z" fill="white"/>
<path id="Vector_33" d="M241.208 180.544C241.2 181.301 241.464 182.036 241.952 182.615C242.44 183.195 243.12 183.581 243.868 183.703C244.617 183.826 245.385 183.676 246.033 183.282C246.681 182.888 247.166 182.275 247.4 181.555C246.559 180.119 245.722 178.739 244.888 177.416C244.725 177.387 244.559 177.372 244.393 177.374C243.975 177.373 243.562 177.455 243.176 177.614C242.789 177.773 242.438 178.006 242.143 178.301C241.847 178.595 241.612 178.945 241.452 179.329C241.292 179.714 241.209 180.127 241.208 180.544Z" fill="white"/>
<path id="Vector_34" d="M218.122 183.713C216.367 183.713 214.945 182.294 214.945 180.543C214.945 178.793 216.367 177.374 218.122 177.374C219.876 177.374 221.299 178.793 221.299 180.543C221.299 182.294 219.876 183.713 218.122 183.713Z" fill="white"/>
<path id="Vector_35" d="M204.988 183.713C203.233 183.713 201.811 182.294 201.811 180.543C201.811 178.793 203.233 177.374 204.988 177.374C206.743 177.374 208.165 178.793 208.165 180.543C208.165 182.294 206.743 183.713 204.988 183.713Z" fill="white"/>
<path id="Vector_36" d="M191.858 183.713C190.104 183.713 188.681 182.294 188.681 180.543C188.681 178.793 190.104 177.374 191.858 177.374C193.613 177.374 195.035 178.793 195.035 180.543C195.035 182.294 193.613 183.713 191.858 183.713Z" fill="white"/>
<path id="Vector_37" d="M178.724 183.713C176.97 183.713 175.547 182.294 175.547 180.543C175.547 178.793 176.97 177.374 178.724 177.374C180.479 177.374 181.901 178.793 181.901 180.543C181.901 182.294 180.479 183.713 178.724 183.713Z" fill="white"/>
<path id="Vector_38" d="M165.594 183.713C163.84 183.713 162.417 182.294 162.417 180.543C162.417 178.793 163.84 177.374 165.594 177.374C167.349 177.374 168.771 178.793 168.771 180.543C168.771 182.294 167.349 183.713 165.594 183.713Z" fill="white"/>
<path id="Vector_39" d="M152.461 183.713C150.706 183.713 149.284 182.294 149.284 180.543C149.284 178.793 150.706 177.374 152.461 177.374C154.215 177.374 155.638 178.793 155.638 180.543C155.638 182.294 154.215 183.713 152.461 183.713Z" fill="white"/>
<path id="Vector_40" d="M237.819 192.589C236.064 192.589 234.641 191.17 234.641 189.42C234.641 187.669 236.064 186.25 237.819 186.25C239.573 186.25 240.996 187.669 240.996 189.42C240.996 191.17 239.573 192.589 237.819 192.589Z" fill="white"/>
<path id="Vector_41" d="M247.775 189.42C247.775 190.027 247.95 190.621 248.278 191.132C248.607 191.643 249.075 192.049 249.628 192.302C250.182 192.555 250.796 192.644 251.398 192.559C252 192.473 252.566 192.217 253.026 191.821C252.071 189.968 251.092 188.142 250.12 186.362C249.447 186.544 248.852 186.941 248.428 187.494C248.004 188.047 247.775 188.724 247.775 189.42V189.42Z" fill="white"/>
<path id="Vector_42" d="M224.689 192.589C222.934 192.589 221.512 191.17 221.512 189.42C221.512 187.669 222.934 186.25 224.689 186.25C226.443 186.25 227.866 187.669 227.866 189.42C227.866 191.17 226.443 192.589 224.689 192.589Z" fill="white"/>
<path id="Vector_43" d="M211.555 192.589C209.8 192.589 208.378 191.17 208.378 189.42C208.378 187.669 209.8 186.25 211.555 186.25C213.309 186.25 214.732 187.669 214.732 189.42C214.732 191.17 213.309 192.589 211.555 192.589Z" fill="white"/>
<path id="Vector_44" d="M198.425 192.589C196.67 192.589 195.248 191.17 195.248 189.42C195.248 187.669 196.67 186.25 198.425 186.25C200.18 186.25 201.602 187.669 201.602 189.42C201.602 191.17 200.18 192.589 198.425 192.589Z" fill="white"/>
<path id="Vector_45" d="M185.291 192.589C183.537 192.589 182.114 191.17 182.114 189.42C182.114 187.669 183.537 186.25 185.291 186.25C187.046 186.25 188.468 187.669 188.468 189.42C188.468 191.17 187.046 192.589 185.291 192.589Z" fill="white"/>
<path id="Vector_46" d="M172.161 192.589C170.407 192.589 168.984 191.17 168.984 189.42C168.984 187.669 170.407 186.25 172.161 186.25C173.916 186.25 175.338 187.669 175.338 189.42C175.338 191.17 173.916 192.589 172.161 192.589Z" fill="white"/>
<path id="Vector_47" d="M159.028 192.589C157.273 192.589 155.851 191.17 155.851 189.42C155.851 187.669 157.273 186.25 159.028 186.25C160.782 186.25 162.205 187.669 162.205 189.42C162.205 191.17 160.782 192.589 159.028 192.589Z" fill="white"/>
<path id="Vector_48" d="M143.251 191.176C143.627 191.738 144.172 192.165 144.808 192.396C145.444 192.627 146.138 192.648 146.787 192.458C147.437 192.269 148.008 191.877 148.419 191.34C148.83 190.803 149.058 190.149 149.07 189.474C149.082 188.799 148.878 188.138 148.487 187.586C148.096 187.035 147.539 186.623 146.897 186.409C146.255 186.196 145.562 186.193 144.917 186.4C144.273 186.608 143.713 187.015 143.317 187.563V187.563C143.262 188.765 143.241 189.969 143.251 191.176Z" fill="white"/>
<path id="Vector_49" d="M231.255 201.89C229.501 201.89 228.078 200.471 228.078 198.72C228.078 196.97 229.501 195.551 231.255 195.551C233.01 195.551 234.433 196.97 234.433 198.72C234.433 200.471 233.01 201.89 231.255 201.89Z" fill="white"/>
<path id="Vector_50" d="M218.122 201.89C216.367 201.89 214.945 200.471 214.945 198.72C214.945 196.97 216.367 195.551 218.122 195.551C219.876 195.551 221.299 196.97 221.299 198.72C221.299 200.471 219.876 201.89 218.122 201.89Z" fill="white"/>
<path id="Vector_51" d="M204.988 201.89C203.233 201.89 201.811 200.471 201.811 198.72C201.811 196.97 203.233 195.551 204.988 195.551C206.743 195.551 208.165 196.97 208.165 198.72C208.165 200.471 206.743 201.89 204.988 201.89Z" fill="white"/>
<path id="Vector_52" d="M191.858 201.89C190.104 201.89 188.681 200.471 188.681 198.72C188.681 196.97 190.104 195.551 191.858 195.551C193.613 195.551 195.035 196.97 195.035 198.72C195.035 200.471 193.613 201.89 191.858 201.89Z" fill="white"/>
<path id="Vector_53" d="M178.724 201.89C176.97 201.89 175.547 200.471 175.547 198.72C175.547 196.97 176.97 195.551 178.724 195.551C180.479 195.551 181.901 196.97 181.901 198.72C181.901 200.471 180.479 201.89 178.724 201.89Z" fill="white"/>
<path id="Vector_54" d="M165.594 201.89C163.84 201.89 162.417 200.471 162.417 198.72C162.417 196.97 163.84 195.551 165.594 195.551C167.349 195.551 168.771 196.97 168.771 198.72C168.771 200.471 167.349 201.89 165.594 201.89Z" fill="white"/>
<path id="Vector_55" d="M152.461 201.89C150.706 201.89 149.284 200.471 149.284 198.72C149.284 196.97 150.706 195.551 152.461 195.551C154.215 195.551 155.638 196.97 155.638 198.72C155.638 200.471 154.215 201.89 152.461 201.89Z" fill="white"/>
<path id="Vector_56" d="M237.819 210.763C236.064 210.763 234.641 209.343 234.641 207.593C234.641 205.842 236.064 204.423 237.819 204.423C239.573 204.423 240.996 205.842 240.996 207.593C240.996 209.343 239.573 210.763 237.819 210.763Z" fill="white"/>
<path id="Vector_57" d="M224.689 210.763C222.934 210.763 221.512 209.343 221.512 207.593C221.512 205.842 222.934 204.423 224.689 204.423C226.443 204.423 227.866 205.842 227.866 207.593C227.866 209.343 226.443 210.763 224.689 210.763Z" fill="white"/>
<path id="Vector_58" d="M211.555 210.763C209.8 210.763 208.378 209.343 208.378 207.593C208.378 205.842 209.8 204.423 211.555 204.423C213.309 204.423 214.732 205.842 214.732 207.593C214.732 209.343 213.309 210.763 211.555 210.763Z" fill="white"/>
<path id="Vector_59" d="M198.425 210.763C196.67 210.763 195.248 209.343 195.248 207.593C195.248 205.842 196.67 204.423 198.425 204.423C200.18 204.423 201.602 205.842 201.602 207.593C201.602 209.343 200.18 210.763 198.425 210.763Z" fill="white"/>
<path id="Vector_60" d="M185.291 210.763C183.537 210.763 182.114 209.343 182.114 207.593C182.114 205.842 183.537 204.423 185.291 204.423C187.046 204.423 188.468 205.842 188.468 207.593C188.468 209.343 187.046 210.763 185.291 210.763Z" fill="white"/>
<path id="Vector_61" d="M172.161 210.763C170.407 210.763 168.984 209.343 168.984 207.593C168.984 205.842 170.407 204.423 172.161 204.423C173.916 204.423 175.338 205.842 175.338 207.593C175.338 209.343 173.916 210.763 172.161 210.763Z" fill="white"/>
<path id="Vector_62" d="M159.028 210.763C157.273 210.763 155.851 209.343 155.851 207.593C155.851 205.842 157.273 204.423 159.028 204.423C160.782 204.423 162.205 205.842 162.205 207.593C162.205 209.343 160.782 210.763 159.028 210.763Z" fill="white"/>
<path id="Vector_63" d="M144.915 204.574C145.395 206.527 145.886 208.581 146.389 210.72C147.175 210.59 147.883 210.171 148.374 209.545C148.864 208.92 149.101 208.133 149.038 207.341C148.975 206.549 148.616 205.809 148.032 205.269C147.448 204.729 146.682 204.427 145.886 204.423C145.557 204.423 145.229 204.474 144.915 204.574Z" fill="white"/>
<path id="Vector_64" d="M231.255 220.484C229.501 220.484 228.078 219.065 228.078 217.314C228.078 215.564 229.501 214.145 231.255 214.145C233.01 214.145 234.433 215.564 234.433 217.314C234.433 219.065 233.01 220.484 231.255 220.484Z" fill="white"/>
<path id="Vector_65" d="M244.385 220.484C242.631 220.484 241.208 219.065 241.208 217.314C241.208 215.564 242.631 214.145 244.385 214.145C246.14 214.145 247.562 215.564 247.562 217.314C247.562 219.065 246.14 220.484 244.385 220.484Z" fill="white"/>
<path id="Vector_66" d="M218.122 220.484C216.367 220.484 214.945 219.065 214.945 217.314C214.945 215.564 216.367 214.145 218.122 214.145C219.876 214.145 221.299 215.564 221.299 217.314C221.299 219.065 219.876 220.484 218.122 220.484Z" fill="white"/>
<path id="Vector_67" d="M204.988 220.484C203.233 220.484 201.811 219.065 201.811 217.314C201.811 215.564 203.233 214.145 204.988 214.145C206.743 214.145 208.165 215.564 208.165 217.314C208.165 219.065 206.743 220.484 204.988 220.484Z" fill="white"/>
<path id="Vector_68" d="M191.858 220.484C190.104 220.484 188.681 219.065 188.681 217.314C188.681 215.564 190.104 214.145 191.858 214.145C193.613 214.145 195.035 215.564 195.035 217.314C195.035 219.065 193.613 220.484 191.858 220.484Z" fill="white"/>
<path id="Vector_69" d="M178.724 220.484C176.97 220.484 175.547 219.065 175.547 217.314C175.547 215.564 176.97 214.145 178.724 214.145C180.479 214.145 181.901 215.564 181.901 217.314C181.901 219.065 180.479 220.484 178.724 220.484Z" fill="white"/>
<path id="Vector_70" d="M165.594 220.484C163.84 220.484 162.417 219.065 162.417 217.314C162.417 215.564 163.84 214.145 165.594 214.145C167.349 214.145 168.771 215.564 168.771 217.314C168.771 219.065 167.349 220.484 165.594 220.484Z" fill="white"/>
<path id="Vector_71" d="M152.461 220.484C150.706 220.484 149.284 219.065 149.284 217.314C149.284 215.564 150.706 214.145 152.461 214.145C154.215 214.145 155.638 215.564 155.638 217.314C155.638 219.065 154.215 220.484 152.461 220.484Z" fill="white"/>
<path id="Vector_72" d="M237.819 229.36C236.064 229.36 234.641 227.941 234.641 226.19C234.641 224.44 236.064 223.021 237.819 223.021C239.573 223.021 240.996 224.44 240.996 226.19C240.996 227.941 239.573 229.36 237.819 229.36Z" fill="white"/>
<path id="Vector_73" d="M244.385 201.89C242.631 201.89 241.208 200.471 241.208 198.72C241.208 196.97 242.631 195.551 244.385 195.551C246.14 195.551 247.562 196.97 247.562 198.72C247.562 200.471 246.14 201.89 244.385 201.89Z" fill="white"/>
<path id="Vector_74" d="M250.952 210.763C249.198 210.763 247.775 209.343 247.775 207.593C247.775 205.842 249.198 204.423 250.952 204.423C252.707 204.423 254.129 205.842 254.129 207.593C254.129 209.343 252.707 210.763 250.952 210.763Z" fill="white"/>
<path id="Vector_75" d="M257.519 220.484C255.764 220.484 254.342 219.065 254.342 217.314C254.342 215.564 255.764 214.145 257.519 214.145C259.274 214.145 260.696 215.564 260.696 217.314C260.696 219.065 259.274 220.484 257.519 220.484Z" fill="white"/>
<path id="Vector_76" d="M250.952 229.36C249.198 229.36 247.775 227.941 247.775 226.19C247.775 224.44 249.198 223.021 250.952 223.021C252.707 223.021 254.129 224.44 254.129 226.19C254.129 227.941 252.707 229.36 250.952 229.36Z" fill="white"/>
<path id="Vector_77" d="M254.338 198.717C254.338 199.557 254.673 200.364 255.269 200.958C255.865 201.552 256.673 201.886 257.515 201.886C257.681 201.888 257.847 201.874 258.011 201.844C257.148 200.041 256.258 198.219 255.356 196.4C255.035 196.695 254.778 197.053 254.603 197.452C254.428 197.85 254.338 198.281 254.338 198.717Z" fill="white"/>
<path id="Vector_78" d="M264.082 229.36C262.328 229.36 260.905 227.941 260.905 226.19C260.905 224.44 262.328 223.021 264.082 223.021C265.837 223.021 267.259 224.44 267.259 226.19C267.259 227.941 265.837 229.36 264.082 229.36Z" fill="white"/>
<path id="Vector_79" d="M224.689 229.36C222.934 229.36 221.512 227.941 221.512 226.19C221.512 224.44 222.934 223.021 224.689 223.021C226.443 223.021 227.866 224.44 227.866 226.19C227.866 227.941 226.443 229.36 224.689 229.36Z" fill="white"/>
<path id="Vector_80" d="M211.555 229.36C209.8 229.36 208.378 227.941 208.378 226.19C208.378 224.44 209.8 223.021 211.555 223.021C213.309 223.021 214.732 224.44 214.732 226.19C214.732 227.941 213.309 229.36 211.555 229.36Z" fill="white"/>
<path id="Vector_81" d="M198.425 229.36C196.67 229.36 195.248 227.941 195.248 226.19C195.248 224.44 196.67 223.021 198.425 223.021C200.18 223.021 201.602 224.44 201.602 226.19C201.602 227.941 200.18 229.36 198.425 229.36Z" fill="white"/>
<path id="Vector_82" d="M185.291 229.36C183.537 229.36 182.114 227.941 182.114 226.19C182.114 224.44 183.537 223.021 185.291 223.021C187.046 223.021 188.468 224.44 188.468 226.19C188.468 227.941 187.046 229.36 185.291 229.36Z" fill="white"/>
<path id="Vector_83" d="M172.161 229.36C170.407 229.36 168.984 227.941 168.984 226.19C168.984 224.44 170.407 223.021 172.161 223.021C173.916 223.021 175.338 224.44 175.338 226.19C175.338 227.941 173.916 229.36 172.161 229.36Z" fill="white"/>
<path id="Vector_84" d="M159.028 229.36C157.273 229.36 155.851 227.941 155.851 226.19C155.851 224.44 157.273 223.021 159.028 223.021C160.782 223.021 162.205 224.44 162.205 226.19C162.205 227.941 160.782 229.36 159.028 229.36Z" fill="white"/>
<path id="Vector_85" d="M231.255 238.657C229.501 238.657 228.078 237.238 228.078 235.487C228.078 233.737 229.501 232.318 231.255 232.318C233.01 232.318 234.433 233.737 234.433 235.487C234.433 237.238 233.01 238.657 231.255 238.657Z" fill="white"/>
<path id="Vector_86" d="M218.122 238.657C216.367 238.657 214.945 237.238 214.945 235.487C214.945 233.737 216.367 232.318 218.122 232.318C219.876 232.318 221.299 233.737 221.299 235.487C221.299 237.238 219.876 238.657 218.122 238.657Z" fill="white"/>
<path id="Vector_87" d="M204.988 238.657C203.233 238.657 201.811 237.238 201.811 235.487C201.811 233.737 203.233 232.318 204.988 232.318C206.743 232.318 208.165 233.737 208.165 235.487C208.165 237.238 206.743 238.657 204.988 238.657Z" fill="white"/>
<path id="Vector_88" d="M191.858 238.657C190.104 238.657 188.681 237.238 188.681 235.487C188.681 233.737 190.104 232.318 191.858 232.318C193.613 232.318 195.035 233.737 195.035 235.487C195.035 237.238 193.613 238.657 191.858 238.657Z" fill="white"/>
<path id="Vector_89" d="M178.724 238.657C176.97 238.657 175.547 237.238 175.547 235.487C175.547 233.737 176.97 232.318 178.724 232.318C180.479 232.318 181.901 233.737 181.901 235.487C181.901 237.238 180.479 238.657 178.724 238.657Z" fill="white"/>
<path id="Vector_90" d="M165.594 238.657C163.84 238.657 162.417 237.238 162.417 235.487C162.417 233.737 163.84 232.318 165.594 232.318C167.349 232.318 168.771 233.737 168.771 235.487C168.771 237.238 167.349 238.657 165.594 238.657Z" fill="white"/>
<path id="Vector_91" d="M151.257 232.553C151.688 234.584 152.116 236.617 152.542 238.653C153.008 238.642 153.466 238.529 153.883 238.321C154.301 238.114 154.667 237.817 154.957 237.453C155.246 237.088 155.452 236.664 155.559 236.211C155.665 235.759 155.671 235.288 155.575 234.833C155.479 234.377 155.284 233.949 155.004 233.577C154.723 233.206 154.364 232.9 153.952 232.683C153.54 232.465 153.085 232.341 152.619 232.318C152.153 232.296 151.688 232.376 151.257 232.553V232.553Z" fill="white"/>
<path id="Vector_92" d="M237.819 241.194C237.006 241.191 236.224 241.503 235.636 242.063V242.063C236.882 243.8 238.128 245.487 239.374 247.124C239.986 246.781 240.468 246.246 240.743 245.601C241.018 244.957 241.071 244.239 240.894 243.561C240.717 242.883 240.32 242.283 239.765 241.854C239.21 241.425 238.528 241.191 237.826 241.19L237.819 241.194Z" fill="white"/>
<path id="Vector_93" d="M224.689 247.533C222.934 247.533 221.512 246.114 221.512 244.364C221.512 242.613 222.934 241.194 224.689 241.194C226.443 241.194 227.866 242.613 227.866 244.364C227.866 246.114 226.443 247.533 224.689 247.533Z" fill="white"/>
<path id="Vector_94" d="M211.555 247.533C209.8 247.533 208.378 246.114 208.378 244.364C208.378 242.613 209.8 241.194 211.555 241.194C213.309 241.194 214.732 242.613 214.732 244.364C214.732 246.114 213.309 247.533 211.555 247.533Z" fill="white"/>
<path id="Vector_95" d="M198.425 247.533C196.67 247.533 195.248 246.114 195.248 244.364C195.248 242.613 196.67 241.194 198.425 241.194C200.18 241.194 201.602 242.613 201.602 244.364C201.602 246.114 200.18 247.533 198.425 247.533Z" fill="white"/>
<path id="Vector_96" d="M185.291 247.533C183.537 247.533 182.114 246.114 182.114 244.364C182.114 242.613 183.537 241.194 185.291 241.194C187.046 241.194 188.468 242.613 188.468 244.364C188.468 246.114 187.046 247.533 185.291 247.533Z" fill="white"/>
<path id="Vector_97" d="M172.161 247.533C170.407 247.533 168.984 246.114 168.984 244.364C168.984 242.613 170.407 241.194 172.161 241.194C173.916 241.194 175.338 242.613 175.338 244.364C175.338 246.114 173.916 247.533 172.161 247.533Z" fill="white"/>
<path id="Vector_98" d="M159.028 247.533C157.273 247.533 155.851 246.114 155.851 244.364C155.851 242.613 157.273 241.194 159.028 241.194C160.782 241.194 162.205 242.613 162.205 244.364C162.205 246.114 160.782 247.533 159.028 247.533Z" fill="white"/>
<path id="Vector_99" d="M230.408 257.255C228.653 257.255 227.231 255.836 227.231 254.085C227.231 252.335 228.653 250.915 230.408 250.915C232.163 250.915 233.585 252.335 233.585 254.085C233.585 255.836 232.163 257.255 230.408 257.255Z" fill="white"/>
<path id="Vector_100" d="M242.725 251.386C244.095 253.07 245.457 254.664 246.796 256.151C247.193 255.689 247.449 255.124 247.533 254.521C247.617 253.919 247.525 253.305 247.269 252.753C247.013 252.201 246.603 251.734 246.088 251.409C245.574 251.083 244.976 250.912 244.366 250.915C243.786 250.916 243.217 251.079 242.725 251.386Z" fill="white"/>
<path id="Vector_101" d="M218.122 257.255C216.367 257.255 214.945 255.836 214.945 254.085C214.945 252.335 216.367 250.915 218.122 250.915C219.876 250.915 221.299 252.335 221.299 254.085C221.299 255.836 219.876 257.255 218.122 257.255Z" fill="white"/>
<path id="Vector_102" d="M204.988 257.255C203.233 257.255 201.811 255.836 201.811 254.085C201.811 252.335 203.233 250.915 204.988 250.915C206.743 250.915 208.165 252.335 208.165 254.085C208.165 255.836 206.743 257.255 204.988 257.255Z" fill="white"/>
<path id="Vector_103" d="M191.858 257.255C190.104 257.255 188.681 255.836 188.681 254.085C188.681 252.335 190.104 250.915 191.858 250.915C193.613 250.915 195.035 252.335 195.035 254.085C195.035 255.836 193.613 257.255 191.858 257.255Z" fill="white"/>
<path id="Vector_104" d="M178.724 257.255C176.97 257.255 175.547 255.836 175.547 254.085C175.547 252.335 176.97 250.915 178.724 250.915C180.479 250.915 181.901 252.335 181.901 254.085C181.901 255.836 180.479 257.255 178.724 257.255Z" fill="white"/>
<path id="Vector_105" d="M165.594 257.255C163.84 257.255 162.417 255.836 162.417 254.085C162.417 252.335 163.84 250.915 165.594 250.915C167.349 250.915 168.771 252.335 168.771 254.085C168.771 255.836 167.349 257.255 165.594 257.255Z" fill="white"/>
<path id="Vector_106" d="M244.385 238.657C242.631 238.657 241.208 237.238 241.208 235.487C241.208 233.737 242.631 232.318 244.385 232.318C246.14 232.318 247.562 233.737 247.562 235.487C247.562 237.238 246.14 238.657 244.385 238.657Z" fill="white"/>
<path id="Vector_107" d="M250.952 247.533C249.198 247.533 247.775 246.114 247.775 244.364C247.775 242.613 249.198 241.194 250.952 241.194C252.707 241.194 254.129 242.613 254.129 244.364C254.129 246.114 252.707 247.533 250.952 247.533Z" fill="white"/>
<path id="Vector_108" d="M257.519 257.255C255.764 257.255 254.342 255.836 254.342 254.085C254.342 252.335 255.764 250.915 257.519 250.915C259.274 250.915 260.696 252.335 260.696 254.085C260.696 255.836 259.274 257.255 257.519 257.255Z" fill="white"/>
<path id="Vector_109" d="M264.082 266.131C262.328 266.131 260.905 264.712 260.905 262.961C260.905 261.211 262.328 259.792 264.082 259.792C265.837 259.792 267.259 261.211 267.259 262.961C267.259 264.712 265.837 266.131 264.082 266.131Z" fill="white"/>
<path id="Vector_110" d="M257.519 238.657C255.764 238.657 254.342 237.238 254.342 235.487C254.342 233.737 255.764 232.318 257.519 232.318C259.274 232.318 260.696 233.737 260.696 235.487C260.696 237.238 259.274 238.657 257.519 238.657Z" fill="white"/>
<path id="Vector_111" d="M264.082 247.533C262.328 247.533 260.905 246.114 260.905 244.364C260.905 242.613 262.328 241.194 264.082 241.194C265.837 241.194 267.259 242.613 267.259 244.364C267.259 246.114 265.837 247.533 264.082 247.533Z" fill="white"/>
<path id="Vector_112" d="M270.649 257.255C268.894 257.255 267.472 255.836 267.472 254.085C267.472 252.335 268.894 250.915 270.649 250.915C272.404 250.915 273.826 252.335 273.826 254.085C273.826 255.836 272.404 257.255 270.649 257.255Z" fill="white"/>
<path id="Vector_113" d="M277.216 266.131C275.461 266.131 274.039 264.712 274.039 262.961C274.039 261.211 275.461 259.792 277.216 259.792C278.97 259.792 280.393 261.211 280.393 262.961C280.393 264.712 278.97 266.131 277.216 266.131Z" fill="white"/>
<path id="Vector_114" d="M270.649 238.657C268.894 238.657 267.472 237.238 267.472 235.487C267.472 233.737 268.894 232.318 270.649 232.318C272.404 232.318 273.826 233.737 273.826 235.487C273.826 237.238 272.404 238.657 270.649 238.657Z" fill="white"/>
<path id="Vector_115" d="M277.216 247.533C275.461 247.533 274.039 246.114 274.039 244.364C274.039 242.613 275.461 241.194 277.216 241.194C278.97 241.194 280.393 242.613 280.393 244.364C280.393 246.114 278.97 247.533 277.216 247.533Z" fill="white"/>
<path id="Vector_116" d="M283.783 257.255C282.028 257.255 280.606 255.836 280.606 254.085C280.606 252.335 282.028 250.915 283.783 250.915C285.537 250.915 286.96 252.335 286.96 254.085C286.96 255.836 285.537 257.255 283.783 257.255Z" fill="white"/>
<path id="Vector_117" d="M287.169 262.942C287.168 263.468 287.298 263.985 287.548 264.447C287.798 264.91 288.16 265.303 288.601 265.591C290.059 265.317 291.526 265.019 292.985 264.71C293.265 264.3 293.444 263.829 293.508 263.337C293.572 262.844 293.519 262.344 293.354 261.875C293.188 261.407 292.915 260.984 292.556 260.64C292.196 260.297 291.761 260.042 291.285 259.897C290.809 259.752 290.306 259.721 289.815 259.805C289.325 259.89 288.861 260.089 288.462 260.385C288.062 260.681 287.738 261.067 287.516 261.511C287.293 261.955 287.178 262.446 287.18 262.942H287.169Z" fill="white"/>
<path id="Vector_118" d="M280.602 235.487C280.602 236.328 280.937 237.134 281.532 237.729C282.128 238.323 282.936 238.657 283.779 238.657C284.621 238.657 285.43 238.323 286.025 237.729C286.621 237.134 286.956 236.328 286.956 235.487C286.957 235.121 286.893 234.758 286.766 234.414L281.128 233.773C280.789 234.281 280.607 234.877 280.602 235.487Z" fill="white"/>
<path id="Vector_119" d="M290.35 247.533C288.595 247.533 287.173 246.114 287.173 244.364C287.173 242.613 288.595 241.194 290.35 241.194C292.104 241.194 293.527 242.613 293.527 244.364C293.527 246.114 292.104 247.533 290.35 247.533Z" fill="white"/>
<path id="Vector_120" d="M296.913 257.255C295.158 257.255 293.736 255.836 293.736 254.085C293.736 252.335 295.158 250.915 296.913 250.915C298.667 250.915 300.09 252.335 300.09 254.085C300.09 255.836 298.667 257.255 296.913 257.255Z" fill="white"/>
<path id="Vector_121" d="M300.302 262.942C300.301 262.979 300.301 263.017 300.302 263.054C302.33 262.567 304.342 262.058 306.316 261.533C305.997 260.894 305.472 260.382 304.824 260.078C304.177 259.775 303.446 259.699 302.75 259.862C302.054 260.025 301.434 260.418 300.989 260.977C300.545 261.536 300.303 262.229 300.302 262.942V262.942Z" fill="white"/>
<path id="Vector_122" d="M293.736 235.487C293.742 236.29 294.054 237.06 294.607 237.643C295.161 238.225 295.916 238.576 296.719 238.625C297.522 238.674 298.313 238.417 298.934 237.907C299.555 237.396 299.958 236.669 300.063 235.874L293.751 235.186C293.74 235.286 293.735 235.387 293.736 235.487V235.487Z" fill="white"/>
<path id="Vector_123" d="M303.479 247.533C301.725 247.533 300.302 246.114 300.302 244.364C300.302 242.613 301.725 241.194 303.479 241.194C305.234 241.194 306.657 242.613 306.657 244.364C306.657 246.114 305.234 247.533 303.479 247.533Z" fill="white"/>
<path id="Vector_124" d="M310.046 257.255C308.292 257.255 306.869 255.836 306.869 254.085C306.869 252.335 308.292 250.915 310.046 250.915C311.801 250.915 313.223 252.335 313.223 254.085C313.223 255.836 311.801 257.255 310.046 257.255Z" fill="white"/>
<path id="Vector_125" d="M307.078 236.619C307.288 237.167 307.646 237.647 308.113 238.004C308.58 238.36 309.137 238.581 309.723 238.64C310.308 238.699 310.898 238.595 311.428 238.339C311.957 238.083 312.405 237.685 312.72 237.19C310.863 237.005 308.99 236.816 307.078 236.619Z" fill="white"/>
<path id="Vector_126" d="M316.613 247.533C314.859 247.533 313.436 246.114 313.436 244.364C313.436 242.613 314.859 241.194 316.613 241.194C318.368 241.194 319.79 242.613 319.79 244.364C319.79 246.114 318.368 247.533 316.613 247.533Z" fill="white"/>
<path id="Vector_127" d="M319.999 254.085C319.999 254.694 320.176 255.291 320.507 255.802C320.839 256.314 321.311 256.719 321.868 256.969C323.3 256.502 324.674 256.039 325.978 255.587C326.206 255.162 326.333 254.692 326.351 254.21C326.369 253.729 326.277 253.25 326.082 252.81C325.886 252.37 325.593 251.979 325.224 251.669C324.855 251.359 324.42 251.136 323.952 251.019C323.484 250.901 322.995 250.891 322.523 250.99C322.051 251.089 321.607 251.295 321.226 251.59C320.845 251.886 320.537 252.264 320.324 252.696C320.111 253.129 320 253.604 319.999 254.085Z" fill="white"/>
<path id="Vector_128" d="M329.743 247.533C327.989 247.533 326.566 246.114 326.566 244.364C326.566 242.613 327.989 241.194 329.743 241.194C331.498 241.194 332.92 242.613 332.92 244.364C332.92 246.114 331.498 247.533 329.743 247.533Z" fill="white"/>
<path id="Vector_129" d="M224.689 266.131C222.934 266.131 221.512 264.712 221.512 262.961C221.512 261.211 222.934 259.792 224.689 259.792C226.443 259.792 227.866 261.211 227.866 262.961C227.866 264.712 226.443 266.131 224.689 266.131Z" fill="white"/>
<path id="Vector_130" d="M211.555 266.131C209.8 266.131 208.378 264.712 208.378 262.961C208.378 261.211 209.8 259.792 211.555 259.792C213.309 259.792 214.732 261.211 214.732 262.961C214.732 264.712 213.309 266.131 211.555 266.131Z" fill="white"/>
<path id="Vector_131" d="M198.425 266.131C196.67 266.131 195.248 264.712 195.248 262.961C195.248 261.211 196.67 259.792 198.425 259.792C200.18 259.792 201.602 261.211 201.602 262.961C201.602 264.712 200.18 266.131 198.425 266.131Z" fill="white"/>
<path id="Vector_132" d="M185.291 266.131C183.537 266.131 182.114 264.712 182.114 262.961C182.114 261.211 183.537 259.792 185.291 259.792C187.046 259.792 188.468 261.211 188.468 262.961C188.468 264.712 187.046 266.131 185.291 266.131Z" fill="white"/>
<path id="Vector_133" d="M172.161 266.131C170.407 266.131 168.984 264.712 168.984 262.961C168.984 261.211 170.407 259.792 172.161 259.792C173.916 259.792 175.338 261.211 175.338 262.961C175.338 264.712 173.916 266.131 172.161 266.131Z" fill="white"/>
<path id="Vector_134" d="M156.95 260.564C157.306 262.417 157.65 264.216 157.975 265.946C158.312 266.069 158.669 266.131 159.028 266.131C159.542 266.133 160.049 266.01 160.505 265.773C160.961 265.537 161.353 265.193 161.647 264.773C161.942 264.352 162.129 263.866 162.194 263.357C162.258 262.848 162.198 262.331 162.019 261.85C161.839 261.369 161.546 260.939 161.163 260.596C160.781 260.253 160.32 260.008 159.822 259.882C159.324 259.755 158.802 259.751 158.302 259.87C157.801 259.989 157.337 260.227 156.95 260.564Z" fill="white"/>
<path id="Vector_135" d="M228.075 272.258C228.074 273.028 228.355 273.771 228.864 274.349C229.373 274.927 230.076 275.299 230.841 275.397C231.155 273.397 231.476 271.297 231.797 269.139C231.617 269.104 231.435 269.088 231.252 269.088C230.409 269.089 229.602 269.424 229.006 270.018C228.411 270.612 228.076 271.418 228.075 272.258V272.258Z" fill="white"/>
<path id="Vector_136" d="M218.122 275.428C216.367 275.428 214.945 274.009 214.945 272.258C214.945 270.508 216.367 269.088 218.122 269.088C219.876 269.088 221.299 270.508 221.299 272.258C221.299 274.009 219.876 275.428 218.122 275.428Z" fill="white"/>
<path id="Vector_137" d="M204.988 275.428C203.233 275.428 201.811 274.009 201.811 272.258C201.811 270.508 203.233 269.088 204.988 269.088C206.743 269.088 208.165 270.508 208.165 272.258C208.165 274.009 206.743 275.428 204.988 275.428Z" fill="white"/>
<path id="Vector_138" d="M191.858 275.428C190.104 275.428 188.681 274.009 188.681 272.258C188.681 270.508 190.104 269.088 191.858 269.088C193.613 269.088 195.035 270.508 195.035 272.258C195.035 274.009 193.613 275.428 191.858 275.428Z" fill="white"/>
<path id="Vector_139" d="M178.724 275.428C176.97 275.428 175.547 274.009 175.547 272.258C175.547 270.508 176.97 269.088 178.724 269.088C180.479 269.088 181.901 270.508 181.901 272.258C181.901 274.009 180.479 275.428 178.724 275.428Z" fill="white"/>
<path id="Vector_140" d="M165.594 275.428C163.84 275.428 162.417 274.009 162.417 272.258C162.417 270.508 163.84 269.088 165.594 269.088C167.349 269.088 168.771 270.508 168.771 272.258C168.771 274.009 167.349 275.428 165.594 275.428Z" fill="white"/>
<path id="Vector_141" d="M224.689 284.304C222.934 284.304 221.512 282.885 221.512 281.134C221.512 279.384 222.934 277.965 224.689 277.965C226.443 277.965 227.866 279.384 227.866 281.134C227.866 282.885 226.443 284.304 224.689 284.304Z" fill="white"/>
<path id="Vector_142" d="M211.555 284.304C209.8 284.304 208.378 282.885 208.378 281.134C208.378 279.384 209.8 277.965 211.555 277.965C213.309 277.965 214.732 279.384 214.732 281.134C214.732 282.885 213.309 284.304 211.555 284.304Z" fill="white"/>
<path id="Vector_143" d="M198.425 284.304C196.67 284.304 195.248 282.885 195.248 281.134C195.248 279.384 196.67 277.965 198.425 277.965C200.18 277.965 201.602 279.384 201.602 281.134C201.602 282.885 200.18 284.304 198.425 284.304Z" fill="white"/>
<path id="Vector_144" d="M185.291 284.304C183.537 284.304 182.114 282.885 182.114 281.134C182.114 279.384 183.537 277.965 185.291 277.965C187.046 277.965 188.468 279.384 188.468 281.134C188.468 282.885 187.046 284.304 185.291 284.304Z" fill="white"/>
<path id="Vector_145" d="M172.161 284.304C170.407 284.304 168.984 282.885 168.984 281.134C168.984 279.384 170.407 277.965 172.161 277.965C173.916 277.965 175.338 279.384 175.338 281.134C175.338 282.885 173.916 284.304 172.161 284.304Z" fill="white"/>
<path id="Vector_146" d="M160.173 278.177C160.529 280.304 160.819 282.134 161.021 283.582C161.45 283.232 161.78 282.776 161.978 282.26C162.176 281.743 162.235 281.184 162.15 280.637C162.064 280.091 161.837 279.576 161.49 279.144C161.143 278.713 160.689 278.379 160.173 278.177Z" fill="white"/>
<path id="Vector_147" d="M214.956 290.852C214.956 291.464 215.133 292.062 215.466 292.575C215.799 293.088 216.274 293.494 216.833 293.744C217.959 293.624 219.054 293.478 220.122 293.323C220.54 292.987 220.866 292.551 221.07 292.055C221.273 291.56 221.347 291.021 221.285 290.489C221.223 289.957 221.027 289.449 220.715 289.013C220.404 288.577 219.986 288.227 219.502 287.996C219.018 287.765 218.483 287.659 217.947 287.69C217.411 287.721 216.892 287.887 216.437 288.172C215.983 288.457 215.609 288.852 215.349 289.321C215.089 289.79 214.953 290.317 214.952 290.852H214.956Z" fill="white"/>
<path id="Vector_148" d="M204.988 294.026C203.233 294.026 201.811 292.607 201.811 290.856C201.811 289.105 203.233 287.686 204.988 287.686C206.743 287.686 208.165 289.105 208.165 290.856C208.165 292.607 206.743 294.026 204.988 294.026Z" fill="white"/>
<path id="Vector_149" d="M191.858 294.026C190.104 294.026 188.681 292.607 188.681 290.856C188.681 289.105 190.104 287.686 191.858 287.686C193.613 287.686 195.035 289.105 195.035 290.856C195.035 292.607 193.613 294.026 191.858 294.026Z" fill="white"/>
<path id="Vector_150" d="M175.547 290.852C175.547 291.514 175.754 292.159 176.139 292.698C177.594 292.929 179.119 293.146 180.702 293.335C181.122 293 181.45 292.565 181.656 292.07C181.861 291.575 181.938 291.035 181.878 290.503C181.818 289.97 181.623 289.461 181.312 289.024C181.002 288.586 180.585 288.235 180.101 288.002C179.617 287.769 179.082 287.662 178.545 287.692C178.009 287.722 177.488 287.886 177.033 288.171C176.578 288.456 176.202 288.851 175.942 289.32C175.681 289.789 175.544 290.316 175.543 290.852H175.547Z" fill="white"/>
<path id="Vector_151" d="M163.04 288.968C164.318 289.767 166.279 290.512 168.752 291.176C168.758 291.068 168.758 290.96 168.752 290.852C168.753 290.185 168.543 289.535 168.152 288.994C167.76 288.453 167.208 288.049 166.573 287.84C165.938 287.631 165.253 287.628 164.616 287.83C163.979 288.033 163.422 288.431 163.025 288.968H163.04Z" fill="white"/>
</g>
<path id="SHADOW" d="M234.847 243.201C223.528 228.194 216.775 213.523 210.204 200.566" stroke="#D8BAA3" stroke-width="4" stroke-miterlimit="10"/>
</g>
<path id="HAND" d="M361.757 237.912C357.996 237.105 344.765 237.175 337.993 239.009L339.274 250.205C339.274 250.205 345.644 253.317 349.85 251.591C354.056 249.865 357.23 246.468 360.225 247.398C363.22 248.329 366.904 250.684 368.703 250.255C370.848 249.777 372.893 248.932 374.748 247.757C374.032 246.445 366.393 239.345 361.757 237.912Z" fill="#FFCFC9"/>
<g id="HEAD">
<path id="NECK" d="M200.735 127.113C199.687 131.306 195.484 149.479 195.484 152.274C195.484 155.07 166.574 151.834 160.97 146.943C160.97 146.943 172.366 134.271 175.168 115.229L200.735 127.113Z" fill="#FFCFC9"/>
<path id="HEAD_2" d="M178.717 117.179C178.717 117.179 187.536 135.534 205.859 134.071C206.471 134.023 207.062 133.824 207.579 133.493C208.095 133.161 208.521 132.707 208.819 132.171C211.334 127.615 218.006 114.797 217.762 107.187C217.46 97.8402 213.474 80.5088 213.474 80.5088C213.474 80.5088 191.162 75.899 178.775 96.5391C171.836 108.122 178.717 117.179 178.717 117.179Z" fill="#FFCFC9"/>
<g id="GLASSES">
<path id="Vector_152" d="M194.822 100.601H227.231" stroke="#D8BAA3" stroke-width="4" stroke-miterlimit="10"/>
<path id="Vector_153" d="M223.796 112.813C222.042 112.813 220.619 108.878 220.619 104.025C220.619 99.1722 222.042 95.238 223.796 95.238C225.551 95.238 226.973 99.1722 226.973 104.025C226.973 108.878 225.551 112.813 223.796 112.813Z" stroke="#D8BAA3" stroke-width="4" stroke-miterlimit="10"/>
</g>
<g id="HAIR">
<path id="Vector_154" d="M136.429 134.951C136.429 134.951 162.143 142.367 196.769 144.626C196.769 144.626 208.823 132.171 194.934 116.801C186.994 108.013 196.726 96.8749 196.726 96.8749C207.852 93.4001 221.07 93.014 221.07 93.014C225.486 86.5394 225.606 77.3466 213.331 68.2698C200.615 58.8802 175.698 49.5021 160.993 64.3703C152.569 72.8642 158.285 89.8906 147.504 95.0564C113.57 111.276 136.429 134.951 136.429 134.951Z" fill="#3F4D90"/>
<path id="Vector_155" d="M209.496 68.2544C196.769 58.8648 171.863 49.4867 157.158 64.3549C148.734 72.8488 153.606 92.8326 142.841 97.9984" stroke="#3F4D90" stroke-width="3" stroke-miterlimit="10"/>
<path id="Vector_156" d="M224.031 92.9986C228.446 86.524 226.596 75.4279 212.882 68.6752" stroke="#3F4D90" stroke-width="3" stroke-miterlimit="10"/>
<path id="Vector_157" d="M202.573 144.572C202.573 144.572 212.936 131.352 198.061 116.928C189.548 108.681 196.842 95.238 196.842 95.238" stroke="#3F4D90" stroke-width="3" stroke-miterlimit="10"/>
</g>
</g>
</g>
<g id="CHAIR">
<path id="Vector_158" d="M91.4617 227.09C93.5165 234.812 121.026 284.617 123.754 354.942C124.127 364.718 128.281 373.969 135.343 380.755C142.405 387.541 151.826 391.334 161.631 391.339H285.744C289.965 391.339 292.837 393.03 294.644 395.775C294.802 396.003 295.03 396.175 295.293 396.266C295.556 396.357 295.841 396.361 296.107 396.279C296.373 396.197 296.606 396.032 296.771 395.809C296.937 395.585 297.027 395.315 297.028 395.037V388.632C297.028 380.138 290.105 371.691 281.576 371.714L243.684 371.745C226.719 371.795 216.677 359.954 216.035 343.039C213.667 280.571 193.529 241.032 184.404 228.229C182.783 225.959 180.641 224.108 178.157 222.832C175.673 221.556 172.919 220.891 170.125 220.893H94.6078C91.4192 220.897 90.6413 224.005 91.4617 227.09Z" fill="#F5F5F5" stroke="#A0A0A0" stroke-width="6" stroke-miterlimit="10" stroke-linecap="round"/>
<path id="Vector_159" d="M92.523 226.627H166.349C169.001 226.623 171.616 227.252 173.975 228.46C176.335 229.669 178.37 231.423 179.912 233.576C188.611 245.784 207.159 295.454 209.43 351.68C209.712 358.508 212.63 364.964 217.574 369.694C222.517 374.425 229.103 377.065 235.953 377.061H282.9C286.649 377.061 290.243 378.547 292.893 381.191C295.544 383.835 297.033 387.422 297.033 391.161" stroke="#A0A0A0" stroke-width="6" stroke-miterlimit="10" stroke-linecap="round"/>
<path id="Vector_160" d="M206.114 416.67H219.658V541.036H206.114V416.67Z" fill="#DEECE7" stroke="#A0A0A0" stroke-width="6" stroke-miterlimit="10" stroke-linecap="round"/>
<path id="Vector_161" d="M241.878 554.383C241.878 547.097 236.422 541.19 229.692 541.19H196.026C189.296 541.19 183.836 547.097 183.836 554.383" stroke="#A0A0A0" stroke-width="6" stroke-miterlimit="10" stroke-linecap="round"/>
<path id="Vector_162" d="M184.606 569.842C179.362 569.842 175.11 565.6 175.11 560.367C175.11 555.135 179.362 550.893 184.606 550.893C189.851 550.893 194.103 555.135 194.103 560.367C194.103 565.6 189.851 569.842 184.606 569.842Z" fill="#F5F5F5" stroke="#A0A0A0" stroke-width="6" stroke-miterlimit="10" stroke-linecap="round"/>
<path id="Vector_163" d="M240.717 569.842C235.472 569.842 231.221 565.6 231.221 560.367C231.221 555.135 235.472 550.893 240.717 550.893C245.962 550.893 250.213 555.135 250.213 560.367C250.213 565.6 245.962 569.842 240.717 569.842Z" fill="#F5F5F5" stroke="#A0A0A0" stroke-width="6" stroke-miterlimit="10" stroke-linecap="round"/>
<path id="Vector_164" d="M227.726 391.563H198.057V410.126C198.057 411.525 198.334 412.91 198.87 414.202C199.407 415.494 200.193 416.669 201.184 417.658C202.176 418.647 203.353 419.432 204.648 419.967C205.944 420.502 207.332 420.778 208.734 420.778H217.042C218.445 420.779 219.835 420.504 221.131 419.969C222.428 419.434 223.606 418.649 224.598 417.659C225.59 416.67 226.377 415.495 226.914 414.201C227.451 412.908 227.727 411.522 227.726 410.122V391.563Z" fill="#F5F5F5" stroke="#A0A0A0" stroke-width="6" stroke-miterlimit="10" stroke-linecap="round"/>
<path id="Vector_165" d="M267.832 554.313C267.832 550.832 266.446 547.493 263.978 545.031C261.511 542.57 258.164 541.187 254.675 541.187H166.833C163.343 541.187 159.997 542.57 157.529 545.031C155.062 547.493 153.676 550.832 153.676 554.313" stroke="#A0A0A0" stroke-width="6" stroke-miterlimit="10" stroke-linecap="round"/>
<path id="Vector_166" d="M270.514 569.842C265.269 569.842 261.017 565.6 261.017 560.367C261.017 555.135 265.269 550.893 270.514 550.893C275.758 550.893 280.01 555.135 280.01 560.367C280.01 565.6 275.758 569.842 270.514 569.842Z" fill="#F5F5F5" stroke="#A0A0A0" stroke-width="6" stroke-miterlimit="10" stroke-linecap="round"/>
<path id="Vector_167" d="M152.101 569.842C146.856 569.842 142.605 565.6 142.605 560.367C142.605 555.135 146.856 550.893 152.101 550.893C157.346 550.893 161.597 555.135 161.597 560.367C161.597 565.6 157.346 569.842 152.101 569.842Z" fill="#F5F5F5" stroke="#A0A0A0" stroke-width="6" stroke-miterlimit="10" stroke-linecap="round"/>
</g>
</g>
</g>
</g>
</g>
<g id="lock">
<g id="login-lock">
<path id="Vector_168" d="M347.14 136.63C347.728 132.635 349.996 128.826 353.446 126.041C356.895 123.256 361.244 121.724 365.535 121.782C369.826 121.839 373.707 123.481 376.326 126.347C378.944 129.213 380.085 133.068 379.498 137.064L378.08 146.704L382.609 146.765L384.027 137.124C384.435 134.573 384.297 132.033 383.62 129.652C382.942 127.272 381.739 125.098 380.08 123.256C378.421 121.414 376.339 119.942 373.954 118.924C371.57 117.906 368.931 117.363 366.19 117.327C363.449 117.29 360.661 117.76 357.987 118.71C355.313 119.66 352.807 121.071 350.614 122.861C348.421 124.651 346.584 126.785 345.21 129.138C343.836 131.491 342.953 134.017 342.611 136.57L341.193 146.21L345.722 146.271L347.14 136.63Z" fill="url(#paint0_linear)"/>
<path id="Vector_169" d="M389.094 145.693L335.046 144.969L329.005 186.042L383.053 186.766L389.094 145.693Z" fill="#79E6BC"/>
<path id="Vector_170" d="M363.707 161.223C363.799 160.619 363.73 160.022 363.507 159.483C363.284 158.945 362.913 158.481 362.428 158.134C361.942 157.786 361.356 157.565 360.721 157.49C360.087 157.415 359.422 157.488 358.787 157.703C358.151 157.918 357.564 158.268 357.076 158.723C356.589 159.177 356.216 159.722 355.99 160.31C355.765 160.898 355.693 161.511 355.782 162.095C355.871 162.679 356.118 163.216 356.501 163.66L355.343 171.533C355.238 172.245 355.442 172.932 355.908 173.442C356.375 173.953 357.066 174.245 357.831 174.256C358.595 174.266 359.37 173.993 359.985 173.497C360.599 173.001 361.004 172.322 361.108 171.61L362.266 163.737C363.057 163.061 363.572 162.162 363.707 161.223Z" fill="url(#paint1_linear)"/>
<path id="Vector_171" d="M391.274 143.773L332.846 142.99L326.264 187.744L384.692 188.527L391.274 143.773Z" fill="url(#paint2_linear)"/>
<path id="Vector_172" d="M348.058 135.866C348.628 131.987 350.83 128.29 354.179 125.586C357.528 122.883 361.75 121.396 365.915 121.451C370.081 121.507 373.849 123.102 376.391 125.884C378.933 128.666 380.041 132.408 379.47 136.287L378.094 145.648L382.491 145.707L383.868 136.346C384.598 131.381 383.181 126.591 379.927 123.03C376.673 119.469 371.849 117.428 366.517 117.356C361.185 117.285 355.782 119.189 351.495 122.649C347.209 126.109 344.39 130.842 343.66 135.807L342.283 145.168L346.681 145.227L348.058 135.866Z" fill="#79E6BC"/>
<path id="Vector_173" d="M389.803 145.219L335.145 144.486L329.036 186.023L383.694 186.755L389.803 145.219Z" fill="#79E6BC"/>
<path id="Vector_174" opacity="0.2" d="M363.476 161.572C363.555 161.046 363.494 160.527 363.299 160.059C363.104 159.59 362.78 159.188 362.358 158.886C361.935 158.584 361.425 158.392 360.872 158.327C360.32 158.261 359.742 158.325 359.189 158.511C358.636 158.698 358.125 159.002 357.7 159.397C357.275 159.792 356.949 160.266 356.751 160.777C356.554 161.288 356.49 161.822 356.565 162.33C356.641 162.839 356.853 163.307 357.184 163.694L356.175 170.56C356.083 171.18 356.26 171.779 356.667 172.224C357.074 172.669 357.677 172.924 358.343 172.933C359.01 172.942 359.685 172.704 360.221 172.272C360.757 171.839 361.109 171.248 361.2 170.627L362.21 163.762C362.902 163.174 363.354 162.391 363.476 161.572V161.572Z" fill="black"/>
</g>
</g>
</g>
</g>
<defs>
<linearGradient id="paint0_linear" x1="23239.5" y1="16924.6" x2="23278.7" y2="14003.3" gradientUnits="userSpaceOnUse">
<stop stop-color="#808080" stop-opacity="0.25"/>
<stop offset="0.54" stop-color="#808080" stop-opacity="0.12"/>
<stop offset="1" stop-color="#808080" stop-opacity="0.1"/>
</linearGradient>
<linearGradient id="paint1_linear" x1="3569.63" y1="11318.6" x2="3582.71" y2="10342.8" gradientUnits="userSpaceOnUse">
<stop stop-color="#808080" stop-opacity="0.25"/>
<stop offset="0.54" stop-color="#808080" stop-opacity="0.12"/>
<stop offset="1" stop-color="#808080" stop-opacity="0.1"/>
</linearGradient>
<linearGradient id="paint2_linear" x1="23632.1" y1="23660.1" x2="23724" y2="16800.5" gradientUnits="userSpaceOnUse">
<stop stop-color="#808080" stop-opacity="0.25"/>
<stop offset="0.54" stop-color="#808080" stop-opacity="0.12"/>
<stop offset="1" stop-color="#808080" stop-opacity="0.1"/>
</linearGradient>
<clipPath id="clip0">
<rect width="385" height="515" fill="white" transform="matrix(-1 0 0 1 475 56)"/>
</clipPath>
<clipPath id="clip1">
<rect width="344.51" height="71.2092" fill="white" transform="translate(98.3312 523.961) rotate(-0.57569)"/>
</clipPath>
</defs>
</svg>
